<svg xmlns="http://www.w3.org/2000/svg" xmlns:xlink="http://www.w3.org/1999/xlink" id="Layer_1" width="160" height="6175" x="0" y="0" enable-background="new -225 -2691 160 6175" version="1.1" viewBox="-225 -2691 160 6175" xml:space="preserve"><style type="text/css">.st0{opacity:5.000000e-02}.st1,.st2{fill:#090909}.st2{enable-background:new}.st2,.st3{opacity:.3}.st4{fill:#fff}.st5{opacity:.5;enable-background:new}.st5,.st6{fill:#c8c5c5}.st7{fill:#9ccf81}.st8{fill:#d90007}.st9{fill:#dd4f37}.st10{fill:#494949}.st11{fill:#fab718}.st12{fill:#c6c4c4}.st13{fill:url(#Rectangle-path_5_)}.st14{fill:url(#Rectangle-path_6_)}.st15{fill:#edc11e}.st16,.st17{opacity:.3;fill:#686969;enable-background:new}.st17{opacity:.5;fill:#fff}.st18{fill:#030303}.st19{fill:#474747}.st20{fill:#040505}.st21,.st22{fill:#010101}.st22{opacity:.3;enable-background:new}.st23{fill:#333}.st24{fill:#ababab}.st25{fill:#989898}.st26{fill:#f1f0f0}.st27{opacity:.1}.st28,.st29{fill:#0d0d0d}.st29{opacity:.1;enable-background:new}.st30{fill:#787878}.st31{fill:#ee2a57}.st32{opacity:.8;fill:#0d0d0d;enable-background:new}.st33{fill:#fed307}.st34{opacity:.2;fill:#fff;enable-background:new}.st35{fill:#222}.st36{opacity:.3;enable-background:new}.st37{fill:#777}.st38{fill:#666}.st39{fill:orange}.st40{opacity:.5;enable-background:new}.st41{fill:#0b0b0a}.st42{fill:#f1d364}.st43{fill:#ecc01e}.st44{fill:#464646}.st45{fill:#f5a623}.st46{fill:#59ad46}.st47{fill:#59ba47}.st48{opacity:.5;fill:#010101;enable-background:new}.st49{opacity:.6}.st50{fill:#7cb244}.st51{opacity:.8;fill:#f60}.st51,.st52,.st53{enable-background:new}.st52{opacity:.7;fill:#ff7b00}.st53{opacity:.6;fill:#ff9100}.st54{fill:#ff3b00}.st55,.st56{opacity:.9;fill:#ff5100;enable-background:new}.st56{opacity:.5;fill:orange}</style><g><g id="Group_34_" class="st0" transform="translate(30.000000, 0.000000)"><path id="Shape_126_" d="M-162.9-2650.7c0-0.6-0.3-2.5-1-2.8c-0.7-0.3-3-1.4-3-1.4c0-0.2-0.3-0.6-0.3-1.1 c0-0.6,0.3-1.1,0.3-1.1c0.3-0.6,1.4-2,1.7-3.1c0.3-1.1,0.6-3.9,0.6-3.9c0-0.6,0.9-0.9,1.5-1.2c1-0.5,2.1-6.5,2.1-6.5 c0-1.9-0.5-1.1-0.5-2.5v-5.2c0-6.4-5.9-10.5-12.5-10.5h-0.3c-6.6,0-12.5,4.1-12.5,10.5v5.2c0,1.4-0.5,0.6-0.5,2.5c0,0,1,6,2,6.5 c0.6,0.3,1.6,0.6,1.6,1.2c0,0,0.4,2.8,0.7,3.9c0.3,1.1,1.4,2.5,1.8,3.1c0,0,0.3,0.5,0.3,1.1c0,0.5-0.3,1-0.3,1.1 c0,0-2.3,1.1-3,1.4c-0.7,0.3-1,2.2-1,2.8c-2.6,0.8-16.4,7.1-18,8.7c-1.1,1.1-1.1,7.9-1.1,7.9v0.9c0,1.5,1.6,3.3,3.2,3.3h54.2 c1.6,0,3.2-1.7,3.2-3.3v-0.9c0,0,0-6.7-1.1-7.9C-146.5-2643.6-160.2-2649.9-162.9-2650.7L-162.9-2650.7L-162.9-2650.7z M-124.4-2644.1c-1.2-1.2-11.6-5.9-13.5-6.5c0-0.4-0.2-1.8-0.8-2.1c-0.5-0.2-2.2-1-2.2-1c0-0.1-0.2-0.5-0.2-0.9s0.2-0.8,0.2-0.8 c0.2-0.5,1.1-1.5,1.3-2.3c0.2-0.8,0.5-2.9,0.5-2.9c0-0.4,0.7-0.6,1.1-0.9c0.7-0.3,1.9-4.8,1.9-4.8c0-1.5-0.1-0.8-0.1-1.9v-3.9 c0-4.8-5.1-7.9-10-7.9h-0.2c-4.9,0-10,3.1-10,7.9v3.9c0,1.1-0.1,0.4-0.1,1.9c0,0,0.9,4.5,1.6,4.8c0.4,0.2,1.2,0.4,1.2,0.9 c0,0,0.3,2.1,0.6,2.9c0.3,0.8,1.1,1.9,1.3,2.3c0,0,0.2,0.4,0.2,0.8c0,0.4-0.2,0.7-0.2,0.9c0,0-1.7,0.8-2.2,1 c-0.6,0.2-0.8,1.7-0.8,2.1c-0.2,0.1-0.5,0.2-0.9,0.3c5,2.2,11.1,5.2,12.4,6.6c0.4,0.4,1.6,1.6,1.8,8.1h15c1.2,0,2.8-0.8,2.8-2 v-0.6C-123.6-2638.2-123.6-2643.2-124.4-2644.1L-124.4-2644.1L-124.4-2644.1z M-193.5-2650.6c0-0.4-0.2-1.8-0.8-2.1 c-0.5-0.2-2.2-1-2.2-1c0-0.1-0.2-0.5-0.2-0.9s0.2-0.8,0.2-0.8c0.2-0.5,1.1-1.5,1.3-2.3c0.2-0.8,0.5-2.9,0.5-2.9 c0-0.4,0.7-0.6,1.1-0.9c0.8-0.3,1.9-4.8,1.9-4.8c0-1.5-0.1-0.8-0.1-1.9v-3.9c0-4.8-5.1-7.9-10-7.9h-0.2c-4.9,0-10,3.1-10,7.9v3.9 c0,1.1-0.1,0.4-0.1,1.9c0,0,0.9,4.5,1.6,4.8c0.4,0.2,1.2,0.4,1.2,0.9c0,0,0.3,2.1,0.5,2.9c0.2,0.8,1.1,1.9,1.3,2.3 c0,0,0.2,0.4,0.2,0.8c0,0.4-0.2,0.7-0.2,0.9c0,0-1.7,0.8-2.2,1c-0.6,0.2-0.8,1.7-0.8,2.1c-1.9,0.6-12.3,5.4-13.5,6.5 c-0.8,0.9-0.8,5.9-0.8,5.9v0.6c0,1.2,1.6,1.9,2.8,1.9h15c0.1-6.6,1.3-7.7,1.7-8.1c1.4-1.4,7.5-4.3,12.5-6.6 C-193-2650.4-193.2-2650.5-193.5-2650.6L-193.5-2650.6L-193.5-2650.6z" class="st1"/></g><path id="Shape_125_" d="M-121.3-2587.3c-0.3-0.3-3-1.6-3.6-1.8c0-0.1-0.1-0.5-0.2-0.6 s-0.6-0.3-0.6-0.3s-0.1-0.1-0.1-0.2c0-0.1,0.1-0.2,0.1-0.2c0.1-0.1,0.3-0.4,0.4-0.6s0.1-0.8,0.1-0.8c0-0.1,0.2-0.2,0.3-0.2 c0.2-0.1,0.4-1.3,0.4-1.3c0-0.4-0.2-0.2-0.2-0.5v-1c0-1.3-1-2.1-2.3-2.1h-0.1c-1.3,0-2.4,0.8-2.4,2.1v1c0,0.3-0.2,0.1-0.2,0.5 c0,0,0.2,1.2,0.4,1.3c0.1,0.1,0.3,0.1,0.3,0.2c0,0,0.1,0.6,0.1,0.8c0.1,0.2,0.3,0.5,0.4,0.6c0,0,0.1,0.1,0.1,0.2 c0,0.1-0.1,0.2-0.1,0.2s-0.5,0.2-0.6,0.3s-0.2,0.5-0.2,0.6c-0.5,0.2-3.3,1.4-3.6,1.8c-0.2,0.2-0.2,1.6-0.2,1.6v0.2 c0,0.3,0.3,0.6,0.6,0.6h10.9c0.3,0,0.6-0.3,0.6-0.6v-0.2C-121.1-2585.7-121.1-2587.1-121.3-2587.3L-121.3-2587.3L-121.3-2587.3z" class="st2"/><path id="Shape_124_" d="M-126.5-2218.2c-0.4,0.4-1,0.4-1.4,0c-0.4-0.4-0.4-1,0-1.4 l1.4-1.4l-1.4-1.4c-0.4-0.4-0.4-1,0-1.4c0.4-0.4,1-0.4,1.4,0l1.4,1.4l1.4-1.4c0.4-0.4,1-0.4,1.4,0s0.4,1,0,1.4l-1.4,1.4l1.4,1.4 c0.4,0.4,0.4,1,0,1.4s-1,0.4-1.4,0l-1.4-1.4L-126.5-2218.2L-126.5-2218.2z" class="st1"/><g id="Group_33_" class="st3" transform="translate(74.000000, 537.000000)"><path id="Shape_123_" d="M-218.1-2684l5.8-5.8c-0.2-0.1-0.5-0.2-0.8-0.2h-10c-0.3,0-0.6,0.1-0.8,0.2L-218.1-2684 L-218.1-2684z" class="st1"/><path id="Shape_122_" d="M-218.1-2682l-6.8-6.8c-0.1,0.2-0.2,0.5-0.2,0.8v6c0,1.1,0.9,2,2,2h10c1.1,0,2-0.9,2-2v-6 c0-0.3-0.1-0.6-0.2-0.8L-218.1-2682L-218.1-2682z" class="st1"/></g><g id="Group_32_" class="st3" transform="translate(66.000000, 576.000000)"><path id="Shape_121_" d="M-211.1-2675l-13.3-13.3c-0.4,0.6-0.7,1.4-0.7,2.3v12c0,2.2,1.8,4,4,4h20c2.2,0,4-1.8,4-4 v-12c0-0.9-0.3-1.6-0.7-2.3L-211.1-2675L-211.1-2675z" class="st1"/><path id="Shape_120_" d="M-211.1-2677l12.3-12.3c-0.6-0.5-1.4-0.7-2.3-0.7h-20c-0.9,0-1.6,0.3-2.3,0.7L-211.1-2677 L-211.1-2677z" class="st1"/></g><g id="Group_31_" transform="translate(72.000000, 677.000000)"><path id="Shape_119_" d="M-212.4-2676.2c-0.7-0.5-2-1.6-2-2.3c0-0.8,0.2-1.2,1.5-2.1c1.3-1,2.2-2.3,2.2-3.9 c0-1.9-0.9-3.7-2.5-4.3h2.4l1.7-1.2h-7.7c-3.4,0-6.7,2.5-6.7,5.4c0,3,2.3,5.4,5.8,5.4c0.2,0,0.5,0,0.7,0c-0.2,0.4-0.4,0.9-0.4,1.4 c0,0.8,0.5,1.5,1,2h-1.3c-4.3,0-7.5,2.6-7.5,5.4c0,2.7,3.6,4.4,7.9,4.4c4.9,0,7.5-2.7,7.5-5.4 C-209.7-2673.5-210.4-2674.8-212.4-2676.2L-212.4-2676.2L-212.4-2676.2z M-216.5-2679.9c-2-0.1-3.9-2.1-4.2-4.7 c-0.3-2.5,1-4.4,3-4.4c2,0.1,3.9,2.1,4.2,4.6C-213.2-2681.8-214.5-2679.9-216.5-2679.9L-216.5-2679.9L-216.5-2679.9z M-217.2-2667.2c-2.9,0-5.1-1.8-5.1-4c0-2.1,2.6-3.9,5.6-3.9c0.7,0,1.3,0.1,1.9,0.3c1.6,1.1,2.8,1.7,3.1,2.9 c0.1,0.2,0.1,0.5,0.1,0.8C-211.7-2668.9-213.1-2667.2-217.2-2667.2L-217.2-2667.2L-217.2-2667.2z" class="st4"/><path id="Shape_118_" d="M-212.4-2676.2c-0.7-0.5-2-1.6-2-2.3c0-0.8,0.2-1.2,1.5-2.1c1.3-1,2.2-2.3,2.2-3.9 c0-1.9-0.9-3.7-2.5-4.3h2.4l1.7-1.2h-7.7c-3.4,0-6.7,2.5-6.7,5.4c0,3,2.3,5.4,5.8,5.4c0.2,0,0.5,0,0.7,0c-0.2,0.4-0.4,0.9-0.4,1.4 c0,0.8,0.5,1.5,1,2h-1.3c-4.3,0-7.5,2.6-7.5,5.4c0,2.7,3.6,4.4,7.9,4.4c4.9,0,7.5-2.7,7.5-5.4 C-209.7-2673.5-210.4-2674.8-212.4-2676.2L-212.4-2676.2L-212.4-2676.2z M-216.5-2679.9c-2-0.1-3.9-2.1-4.2-4.7 c-0.3-2.5,1-4.4,3-4.4c2,0.1,3.9,2.1,4.2,4.6C-213.2-2681.8-214.5-2679.9-216.5-2679.9L-216.5-2679.9L-216.5-2679.9z M-217.2-2667.2c-2.9,0-5.1-1.8-5.1-4c0-2.1,2.6-3.9,5.6-3.9c0.7,0,1.3,0.1,1.9,0.3c1.6,1.1,2.8,1.7,3.1,2.9 c0.1,0.2,0.1,0.5,0.1,0.8C-211.7-2668.9-213.1-2667.2-217.2-2667.2L-217.2-2667.2L-217.2-2667.2z" class="st4"/></g><g id="Group_30_" transform="translate(76.000000, 630.000000)"><path id="Shape_117_" d="M-218.7-2682.1c-0.3-0.2-1-0.8-1-1.2s0.1-0.6,0.7-1.1s1.1-1.2,1.1-1.9c0-0.9-0.4-1.9-1.2-2.2 h1.2l0.9-0.6h-3.8c-1.7,0-3.3,1.3-3.3,2.7c0,1.5,1.2,2.7,2.9,2.7h0.4c-0.1,0.2-0.2,0.4-0.2,0.7c0,0.4,0.2,0.8,0.5,1h-0.7 c-2.1,0-3.8,1.3-3.8,2.7c0,1.3,1.8,2.2,3.9,2.2c2.4,0,3.8-1.3,3.8-2.7C-217.4-2680.8-217.7-2681.4-218.7-2682.1L-218.7-2682.1 L-218.7-2682.1z M-220.8-2684c-1,0-1.9-1.1-2.1-2.3c-0.2-1.3,0.5-2.2,1.5-2.2s1.9,1,2.1,2.3 C-219.2-2684.9-219.8-2683.9-220.8-2684L-220.8-2684L-220.8-2684z M-221.2-2677.6c-1.5,0-2.5-0.9-2.5-2s1.3-1.9,2.8-1.9 c0.4,0,0.7,0,1,0.1c0.8,0.5,1.4,0.9,1.5,1.5c0,0.1,0.1,0.2,0.1,0.4C-218.4-2678.4-219.1-2677.6-221.2-2677.6L-221.2-2677.6 L-221.2-2677.6z" class="st4"/><path id="Shape_116_" d="M-218.7-2682.1c-0.3-0.2-1-0.8-1-1.2s0.1-0.6,0.7-1.1s1.1-1.2,1.1-1.9c0-0.9-0.4-1.9-1.2-2.2 h1.2l0.9-0.6h-3.8c-1.7,0-3.3,1.3-3.3,2.7c0,1.5,1.2,2.7,2.9,2.7h0.4c-0.1,0.2-0.2,0.4-0.2,0.7c0,0.4,0.2,0.8,0.5,1h-0.7 c-2.1,0-3.8,1.3-3.8,2.7c0,1.3,1.8,2.2,3.9,2.2c2.4,0,3.8-1.3,3.8-2.7C-217.4-2680.8-217.7-2681.4-218.7-2682.1L-218.7-2682.1 L-218.7-2682.1z M-220.8-2684c-1,0-1.9-1.1-2.1-2.3c-0.2-1.3,0.5-2.2,1.5-2.2s1.9,1,2.1,2.3 C-219.2-2684.9-219.8-2683.9-220.8-2684L-220.8-2684L-220.8-2684z M-221.2-2677.6c-1.5,0-2.5-0.9-2.5-2s1.3-1.9,2.8-1.9 c0.4,0,0.7,0,1,0.1c0.8,0.5,1.4,0.9,1.5,1.5c0,0.1,0.1,0.2,0.1,0.4C-218.4-2678.4-219.1-2677.6-221.2-2677.6L-221.2-2677.6 L-221.2-2677.6z" class="st4"/></g><path id="Shape_115_" d="M-123.2-1854l2.3-2.3c0.4-0.4,0.4-1,0-1.4s-1-0.4-1.4,0l-2.3,2.3 l-2.3-2.3c-0.4-0.4-1-0.4-1.4,0c-0.4,0.4-0.4,1,0,1.4l2.3,2.3l-2.3,2.3c-0.4,0.4-0.4,1,0,1.4c0.2,0.2,0.4,0.3,0.7,0.3 s0.5-0.1,0.7-0.3l2.3-2.3l2.3,2.3c0.2,0.2,0.4,0.3,0.7,0.3s0.5-0.1,0.7-0.3c0.4-0.4,0.4-1,0-1.4L-123.2-1854L-123.2-1854z" class="st1"/><g id="Group_29_" transform="translate(1.000000, 1624.000000)"><path id="Shape_114_" d="M-156.6-2642.3c4-2.2,6.9-5.5,7-9.9c0.2-9.5-9.2-16.4-18.6-18.3l-0.4-0.1 c0.6,6-0.9,11.7-4.4,16.2c-3.6,4.6-9,7.6-15.4,9c3.1,3.7,8.1,6,14,6.4c2.8,0.2,5.8,0,8.7-0.4c3.1,2.4,7.7,2.6,11.5,2.3 c1.2-0.1,1-0.6,0.1-0.8c-1.8-0.4-3.2-1.7-3.2-3.5C-157.2-2641.8-156.9-2642.1-156.6-2642.3L-156.6-2642.3L-156.6-2642.3z" class="st5"/><path id="Shape_113_" d="M-171.2-2673.4c-3-13.2-16.4-17.6-29.6-14.8c-12,2.6-24,11.6-23.7,24 c0.2,5.7,3.8,10.1,8.9,12.9c0.3,0.2,0.8,0.6,0.8,1.2c0.1,2.4-1.7,4-4,4.6c-1.2,0.3-1.5,0.9,0.1,1.1c4.9,0.3,10.7,0.1,14.7-3 c3.7,0.5,7.4,0.8,11.1,0.5C-178-2648.1-168-2658.9-171.2-2673.4L-171.2-2673.4L-171.2-2673.4z" class="st6"/></g><g id="Group_28_" transform="translate(1.000000, 1723.000000)"><path id="Shape_112_" d="M-177-2657.1l15-9.2l6.7,13.2c1.6,7.2-7.3,9.9-14.4,9.4L-177-2657.1L-177-2657.1z" class="st7"/><path id="Shape_111_" d="M-180.4-2647.6l-7.9,14.2l7.9,14.4l0.2-5.8h7.2c2.6,0.2,6-1.5,7.3-4.1l9.2-17.3 c-3.1,3.1-7,3.9-11.5,3.9h-12.1L-180.4-2647.6L-180.4-2647.6z" class="st7"/><path id="Shape_110_" d="M-198-2665.2l-15.1-8.9l8.1-12.4c5.4-5,12,1.7,15.1,8.3L-198-2665.2L-198-2665.2z" class="st7"/><path id="Shape_109_" d="M-188.2-2666.7l16,0.1l8.5-14l-5,2.6l-3.5-6.4c-1.1-2.5-4.2-4.7-7-4.6l-19.3,0.1 c4.1,1.2,6.7,4.4,8.9,8.4l5.9,10.9L-188.2-2666.7L-188.2-2666.7z" class="st7"/><path id="Shape_108_" d="M-224.7-2665.9l4.7,3.6l-4.4,8.4c-2.2,3.9,1.6,7.7,4,9s6.1,1.5,9.5,1.4l6.2-10.1l4.7,2.5 l-8.1-15.1L-224.7-2665.9L-224.7-2665.9z" class="st7"/><path id="Shape_107_" d="M-224-2646.4l10.1,18.6c2,2.6,5.8,3.2,9.8,3.1h10.6v-17.6l-20.1-0.1 C-216.8-2642.2-220.9-2642.9-224-2646.4L-224-2646.4L-224-2646.4z" class="st7"/></g><path id="Shape_106_" d="M-216.1-837.4l3.1,5.4h-6.2L-216.1-837.4L-216.1-837.4z M-216.1-842.5l-7.5,13h15L-216.1-842.5L-216.1-842.5z" class="st8"/><g id="Group_19_" transform="translate(11.000000, 2077.000000)"><circle id="Oval_3_" cx="-217.1" cy="-2682" r="8" class="st9"/><g id="Shape_103_" transform="translate(4.000000, 2.000000)"><path id="Shape_105_" d="M-218.7-2683.1c-0.3-0.2-1-0.8-1-1.2s0.1-0.6,0.7-1.1s1.1-1.2,1.1-1.9 c0-0.9-0.4-1.9-1.2-2.1h1.2l0.9-0.6h-3.8c-1.7,0-3.3,1.3-3.3,2.7c0,1.5,1.2,2.7,2.9,2.7h0.4c-0.1,0.2-0.2,0.4-0.2,0.7 c0,0.4,0.2,0.8,0.5,1h-0.7c-2.1,0-3.8,1.3-3.8,2.7s1.8,2.2,3.9,2.2c2.4,0,3.8-1.3,3.8-2.7 C-217.4-2681.8-217.7-2682.4-218.7-2683.1L-218.7-2683.1L-218.7-2683.1z M-220.8-2684.9c-1,0-1.9-1.1-2.1-2.3 c-0.2-1.3,0.5-2.2,1.5-2.2s1.9,1,2.1,2.3C-219.2-2685.9-219.8-2684.9-220.8-2684.9L-220.8-2684.9L-220.8-2684.9z M-221.2-2678.6 c-1.5,0-2.5-0.9-2.5-2s1.3-1.9,2.8-1.9c0.4,0,0.7,0.1,1,0.1c0.8,0.5,1.4,0.9,1.5,1.5c0,0.1,0.1,0.2,0.1,0.4 C-218.4-2679.4-219.1-2678.6-221.2-2678.6L-221.2-2678.6L-221.2-2678.6z" class="st4"/><path id="Shape_104_" d="M-218.7-2683.1c-0.3-0.2-1-0.8-1-1.2s0.1-0.6,0.7-1.1s1.1-1.2,1.1-1.9 c0-0.9-0.4-1.9-1.2-2.1h1.2l0.9-0.6h-3.8c-1.7,0-3.3,1.3-3.3,2.7c0,1.5,1.2,2.7,2.9,2.7h0.4c-0.1,0.2-0.2,0.4-0.2,0.7 c0,0.4,0.2,0.8,0.5,1h-0.7c-2.1,0-3.8,1.3-3.8,2.7s1.8,2.2,3.9,2.2c2.4,0,3.8-1.3,3.8-2.7 C-217.4-2681.8-217.7-2682.4-218.7-2683.1L-218.7-2683.1L-218.7-2683.1z M-220.8-2684.9c-1,0-1.9-1.1-2.1-2.3 c-0.2-1.3,0.5-2.2,1.5-2.2s1.9,1,2.1,2.3C-219.2-2685.9-219.8-2684.9-220.8-2684.9L-220.8-2684.9L-220.8-2684.9z M-221.2-2678.6 c-1.5,0-2.5-0.9-2.5-2s1.3-1.9,2.8-1.9c0.4,0,0.7,0.1,1,0.1c0.8,0.5,1.4,0.9,1.5,1.5c0,0.1,0.1,0.2,0.1,0.4 C-218.4-2679.4-219.1-2678.6-221.2-2678.6L-221.2-2678.6L-221.2-2678.6z" class="st4"/></g></g><path id="Shape_102_" d="M-86.7-650c2.8,0,5.6-1.1,7.6-3.1l12.9-12.9l-12.9-12.9 c-2-2-4.7-3.1-7.6-3.1h-5.2v32H-86.7L-86.7-650z" class="st10"/><path id="Shape_101_" d="M-188.1-431.6l12.3,20.6h-24.7L-188.1-431.6L-188.1-431.6z M-188.1-451l-30,50h60L-188.1-451L-188.1-451z" class="st11"/><path id="Shape_100_" d="M-223.1-320c0,19.3,15.7,35,35,35c19.3,0,35-15.7,35-35 s-15.7-35-35-35C-207.4-355-223.1-339.3-223.1-320L-223.1-320L-223.1-320z M-218.1-320c0-16.6,13.4-30,30-30s30,13.4,30,30 s-13.4,30-30,30S-218.1-303.4-218.1-320L-218.1-320L-218.1-320z" class="st12"/><path id="Shape_99_" d="M-180.2-336.8c0,1.2-0.5,2.3-1.4,3.2s-2.1,1.3-3.4,1.3 s-2.5-0.4-3.4-1.3s-1.4-1.9-1.4-3.2c0-1.2,0.5-2.3,1.4-3.2s2.1-1.3,3.4-1.3c1.3,0,2.4,0.4,3.4,1.3 C-180.7-339.1-180.2-338-180.2-336.8L-180.2-336.8L-180.2-336.8z M-180.7-307l-0.5,2.2c-1.6,0.6-2.9,1.1-3.9,1.4s-2.1,0.5-3.3,0.5 c-2,0-3.5-0.5-4.6-1.4c-1.1-1-1.6-2.2-1.6-3.6c0-0.6,0-1.2,0.1-1.8c0.1-0.6,0.2-1.3,0.4-2l2-7.1c0.2-0.7,0.3-1.3,0.4-1.9 s0.2-1.2,0.2-1.7c0-0.9-0.2-1.5-0.6-1.9c-0.4-0.4-1.1-0.5-2.1-0.5c-0.5,0-1.1,0.1-1.6,0.2c-0.5,0.2-1,0.3-1.4,0.5l0.5-2.2 c1.3-0.5,2.6-1,3.8-1.4c1.2-0.4,2.4-0.6,3.4-0.6c1.9,0,3.4,0.5,4.5,1.4c1,0.9,1.6,2.2,1.6,3.6c0,0.3,0,0.9-0.1,1.6 c-0.1,0.8-0.2,1.5-0.4,2.1l-2,7.1c-0.2,0.6-0.3,1.2-0.4,2c-0.1,0.7-0.2,1.3-0.2,1.7c0,0.9,0.2,1.6,0.6,1.9c0.4,0.4,1.2,0.5,2.2,0.5 c0.5,0,1-0.1,1.7-0.3C-181.4-306.7-181-306.9-180.7-307L-180.7-307L-180.7-307z" class="st12"/><path id="Shape_98_" d="M-223.1-210c0,19.3,15.7,35,35,35c19.3,0,35-15.7,35-35 s-15.7-35-35-35C-207.4-245-223.1-229.3-223.1-210L-223.1-210L-223.1-210z M-218.1-210c0-16.6,13.4-30,30-30s30,13.4,30,30 s-13.4,30-30,30S-218.1-193.4-218.1-210L-218.1-210L-218.1-210z" class="st12"/><path id="Shape_97_" d="M-185.1-196.8c0,1.2-0.5,2.3-1.4,3.2s-2,1.3-3.3,1.3 c-1.3,0-2.4-0.4-3.3-1.3c-0.9-0.9-1.4-1.9-1.4-3.2c0-1.2,0.5-2.3,1.4-3.2s2-1.4,3.3-1.4c1.2,0,2.4,0.4,3.3,1.4 C-185.5-199.1-185.1-198-185.1-196.8L-185.1-196.8L-185.1-196.8z M-176.2-218.3c0,3.3-1.1,5.9-3.4,8c-2.2,2-5.2,3.2-9,3.5l-0.1,3.3 h-2.2v-9.5c2.4-0.2,4.2-0.9,5.5-2.2c1.3-1.3,2-3.1,2-5.3c0-1.8-0.5-3.2-1.4-4.3s-2.2-1.6-3.8-1.6c-0.7,0-1.3,0.1-1.8,0.2 c-0.5,0.1-1,0.4-1.5,0.6c0.2,0.5,0.4,1.2,0.6,2s0.3,1.6,0.3,2.3c0,1.1-0.4,2-1.1,2.6s-1.8,0.9-3.1,0.9c-1.2,0-2.2-0.4-2.9-1.2 c-0.7-0.8-1.1-1.8-1.1-2.9c0-1.9,1.1-3.4,3.2-4.8c2.1-1.3,4.7-1.9,7.7-1.9c3.6,0,6.4,0.9,8.7,2.8 C-177.4-223.8-176.2-221.4-176.2-218.3L-176.2-218.3L-176.2-218.3z" class="st12"/><path id="Shape_96_" d="M-223.1-100c0,19.3,15.7,35,35,35c19.3,0,35-15.7,35-35 s-15.7-35-35-35C-207.4-135-223.1-119.3-223.1-100L-223.1-100L-223.1-100z M-218.1-100c0-16.6,13.4-30,30-30s30,13.4,30,30 s-13.4,30-30,30S-218.1-83.4-218.1-100L-218.1-100L-218.1-100z" class="st12"/><path id="Shape_95_" d="M-183.7-87.1c0,1.2-0.5,2.3-1.4,3.2s-2,1.3-3.3,1.3 c-1.3,0-2.4-0.4-3.3-1.3c-0.9-0.9-1.4-1.9-1.4-3.2c0-1.2,0.5-2.3,1.4-3.2s2-1.4,3.3-1.4c1.2,0,2.3,0.5,3.3,1.4 S-183.7-88.4-183.7-87.1L-183.7-87.1L-183.7-87.1z M-183.6-114.1c0,0.7-0.1,1.6-0.4,2.6c-0.2,1.1-0.5,2.4-0.9,3.9 c-0.3,1.4-0.7,3.1-1.2,5.2c-0.4,2.1-0.9,4.7-1.4,7.8h-1.9c-0.5-3.1-1-5.7-1.4-7.8c-0.4-2.1-0.8-3.8-1.2-5.2 c-0.3-1.3-0.6-2.5-0.9-3.8c-0.3-1.2-0.4-2.1-0.4-2.8c0-1.2,0.5-2.3,1.4-3.2c0.9-0.9,2-1.3,3.3-1.3c1.3,0,2.4,0.4,3.3,1.3 C-184.1-116.4-183.6-115.4-183.6-114.1L-183.6-114.1L-183.6-114.1z" class="st12"/><linearGradient id="Rectangle-path_5_" x1="-6004.385" x2="-6004.385" y1="-8251.074" y2="-8252.074" gradientTransform="matrix(160 0 0 16 960556.5 132113.1875)" gradientUnits="userSpaceOnUse"><stop offset="0" stop-color="#FFF" stop-opacity="0"/><stop offset="1" stop-color="#FFF"/></linearGradient><rect id="Rectangle-path_4_" width="160" height="16" x="-225.1" y="80" class="st13"/><linearGradient id="Rectangle-path_6_" x1="-6004.385" x2="-6004.385" y1="-8251.074" y2="-8252.074" gradientTransform="matrix(160 0 0 16 960556.5 132173.1875)" gradientUnits="userSpaceOnUse"><stop offset="0" stop-color="#FFF"/><stop offset="1" stop-color="#FFF" stop-opacity="0"/></linearGradient><rect id="Rectangle-path_3_" width="160" height="16" x="-225.1" y="140" class="st14"/><g id="Group_18_" transform="translate(11.000000, 2686.000000)"><path id="Shape_94_" d="M-175.1-2684c0-1.2-0.8-2-2-2h-20l-4-4h-21c-1.2,0-2,0.8-2,2v6h49V-2684L-175.1-2684z M-225.1-2680v31.8c0,1.2,1,2.2,2.2,2.2h47.7c1.2,0,2.2-1,2.2-2.2v-31.8H-225.1L-225.1-2680z" class="st15"/><path id="Shape_93_" d="M-198.2-2673.3l-3.3,3.3c1.2-0.1,2.4,0.1,3.6,0.6l1.8-1.8c1.1-1.2,3-1.2,4.2,0 c1.2,1.1,1.2,3,0,4.2l-4.2,4.2c-1.2,1.1-3,1.1-4.2,0c-0.4-0.4-1-0.4-1.4,0l-0.7,0.7c-0.4,0.4-0.4,1,0,1.4c2.3,2.3,6.1,2.3,8.4,0 l4.2-4.2c2.3-2.3,2.3-6.1,0-8.4C-192.1-2675.6-195.9-2675.6-198.2-2673.3L-198.2-2673.3L-198.2-2673.3z" class="st4"/><path id="Shape_92_" d="M-205.2-2666.3l-4.2,4.2c-2.3,2.3-2.3,6.1,0,8.4c2.3,2.3,6.1,2.3,8.4,0l3.3-3.3 c-1.2,0.1-2.4-0.1-3.6-0.6l-1.8,1.8c-1.2,1.1-3,1.1-4.2,0c-1.2-1.1-1.1-3,0-4.2l4.2-4.2c1-1,2.5-1.1,3.7-0.4l0,0 c0.2,0.1,0.3,0.2,0.5,0.4c0.4,0.4,1,0.4,1.4,0l0.7-0.7c0.4-0.4,0.4-1,0-1.4C-199.1-2668.6-202.9-2668.6-205.2-2666.3 L-205.2-2666.3L-205.2-2666.3z" class="st4"/></g><path id="Shape_91_" d="M-165.1,245.9l24.7,41.1h-49.4L-165.1,245.9L-165.1,245.9z M-165.1,207l-60,100h120L-165.1,207L-165.1,207z" class="st16"/><g id="Group_16_" transform="translate(17.000000, 3094.000000)"><path id="Shape_90_" d="M-185.5-2667.5c-0.6-0.6-5.8-3-6.7-3.3c0-0.2-0.1-0.9-0.4-1.1c-0.3-0.1-1.1-0.5-1.1-0.5 c0-0.1-0.1-0.2-0.1-0.4s0.1-0.4,0.1-0.4c0.1-0.2,0.5-0.8,0.6-1.2s0.2-1.5,0.2-1.5c0-0.2,0.3-0.3,0.5-0.4c0.4-0.2,0.7-2.4,0.7-2.4 c0-0.8-0.3-0.4-0.3-1v-2c0-2.4-2.1-3.8-4.5-3.8h-0.1c-2.5,0-4.3,1.3-4.3,3.8v2c0,0.5-0.3,0.2-0.3,1c0,0,0.3,2.3,0.7,2.4 c0.2,0.1,0.5,0.2,0.5,0.4c0,0,0.1,1.1,0.2,1.5c0.1,0.4,0.5,0.9,0.7,1.2c0,0,0.1,0.2,0.1,0.4s-0.1,0.4-0.1,0.4s-0.9,0.4-1.1,0.5 c-0.3,0.1-0.4,0.9-0.4,1.1c-0.2,0.1-0.6,0.2-1,0.4c2.5,1.1,5.6,2.6,6.3,3.4c0.2,0.2,0.8,0.9,0.9,3.9h8.3c0.6,0,1.1-0.5,1.1-1.1 v-0.3C-185.1-2664.5-185.1-2667.1-185.5-2667.5L-185.5-2667.5L-185.5-2667.5z" class="st17"/><path id="Shape_89_" d="M-196.2-2666.2c-0.8-0.8-7.5-3.9-8.7-4.3c0-0.3-0.1-1.2-0.5-1.4c-0.3-0.1-1.5-0.7-1.5-0.7 c0-0.1-0.1-0.3-0.1-0.6s0.1-0.5,0.1-0.5c0.2-0.3,0.7-1,0.8-1.5c0.2-0.6,0.3-1.9,0.3-1.9c0-0.3,0.4-0.4,0.7-0.6 c0.5-0.2,0.9-3.2,0.9-3.2c0-1-0.4-0.6-0.4-1.2v-2.6c0-3.2-2.7-4.9-5.9-4.9h-0.1c-3.2,0-5.6,1.7-5.6,4.9v2.6c0,0.7-0.4,0.3-0.4,1.2 c0,0,0.4,2.9,0.9,3.2c0.3,0.1,0.7,0.3,0.7,0.6c0,0,0.2,1.4,0.3,1.9s0.7,1.2,0.8,1.5c0,0,0.1,0.3,0.1,0.5c0,0.3-0.1,0.5-0.1,0.6 c0,0-1.1,0.5-1.4,0.7c-0.4,0.2-0.5,1.1-0.5,1.4c-1.3,0.4-8,3.5-8.7,4.3c-0.5,0.6-0.5,3.9-0.5,3.9v0.4c0,0.8,0.6,1.4,1.4,1.4h26.6 c0.8,0,1.4-0.6,1.4-1.4v-0.4C-195.8-2662.3-195.8-2665.6-196.2-2666.2L-196.2-2666.2L-196.2-2666.2z" class="st4"/></g><path id="Shape_88_" d="M-211.7,498l2.3-2.3c0.4-0.4,0.4-1,0-1.4s-1-0.4-1.4,0l-2.3,2.3 l-2.3-2.3c-0.4-0.4-1-0.4-1.4,0s-0.4,1,0,1.4l2.3,2.3l-2.3,2.3c-0.4,0.4-0.4,1,0,1.4c0.2,0.2,0.5,0.3,0.7,0.3 c0.2,0,0.5-0.1,0.7-0.3l2.3-2.3l2.3,2.3c0.2,0.2,0.5,0.3,0.7,0.3c0.2,0,0.5-0.1,0.7-0.3c0.4-0.4,0.4-1,0-1.4L-211.7,498L-211.7,498 z" class="st18"/><path id="Shape_87_" d="M-217.8-573c-0.6-0.6-1.5-1-2.3-1h16c-0.9,0-1.7,0.4-2.3,1 l-4.5,4.5c-0.6,0.7-1.7,0.7-2.3,0L-217.8-573L-217.8-573z" class="st19"/><circle id="Oval_2_" cx="-219.1" cy="-544" r="1" class="st4"/><path id="Shape_86_" d="M-220-546c-0.1-0.3,0-0.5,0-0.7c0.1-0.2,0.2-0.4,0.3-0.6 c0.1-0.2,0.2-0.3,0.4-0.4l0.4-0.4c0.1-0.1,0.2-0.2,0.3-0.4c0.1-0.1,0.1-0.3,0.1-0.4c0-0.2-0.1-0.4-0.2-0.6 c-0.2-0.1-0.4-0.2-0.6-0.2s-0.5,0-0.6,0.2c-0.2,0.1-0.4,0.2-0.6,0.4l-1-0.9c0.3-0.3,0.6-0.6,1-0.8s0.8-0.3,1.3-0.3 c0.3,0,0.7,0,0.9,0.1c0.3,0.1,0.6,0.2,0.8,0.4c0.2,0.2,0.4,0.4,0.5,0.6c0.1,0.2,0.2,0.5,0.2,0.8s-0.1,0.5-0.1,0.7 c-0.1,0.2-0.2,0.4-0.4,0.5c-0.1,0.2-0.3,0.3-0.4,0.4c-0.2,0.1-0.3,0.3-0.4,0.4c-0.1,0.1-0.2,0.3-0.3,0.5s-0.1,0.4-0.1,0.6L-220-546 L-220-546L-220-546L-220-546z" class="st4"/><g id="Group_13_" transform="translate(5.000000, 499.000000)"><rect id="Rectangle-path_2_" width="2" height="5" x="-225.1" y="-2687" class="st4"/><rect id="Rectangle-path_1_" width="2" height="2" x="-225.1" y="-2690" class="st4"/></g><g id="Group_12_" transform="translate(131.000000, 3182.000000)"><path id="Shape_85_" d="M-210.2-2680.9c-0.2-0.3-2.5-1.3-3-1.5c0-0.1-0.1-0.4-0.2-0.5c-0.1,0-0.5-0.2-0.5-0.2 s0-0.1-0.1-0.2c0-0.1,0.1-0.2,0.1-0.2c0.1-0.1,0.2-0.3,0.3-0.5s0.1-0.7,0.1-0.7c0-0.1,0.1-0.1,0.2-0.2c0.2-0.1,0.3-1.1,0.3-1.1 c0-0.3-0.1-0.2-0.1-0.4v-0.9c0-1.1-0.9-1.8-2-1.8l0,0c-1.1,0-2,0.7-2,1.8v0.9c0,0.2-0.1,0.1-0.1,0.4c0,0,0.1,1,0.3,1.1 c0.1,0.1,0.2,0.1,0.2,0.2c0,0,0.1,0.5,0.1,0.7s0.2,0.4,0.3,0.5c0,0,0.1,0.1,0.1,0.2c0,0.1-0.1,0.2-0.1,0.2s-0.4,0.2-0.5,0.2 c-0.1,0.1-0.2,0.4-0.2,0.5c-0.4,0.1-2.7,1.2-3,1.5c-0.2,0.2-0.2,1.3-0.2,1.3v0.1c0,0.3,0.2,0.5,0.5,0.5h9.1c0.3,0,0.5-0.2,0.5-0.5 v-0.1C-210.1-2679.6-210.1-2680.7-210.2-2680.9L-210.2-2680.9L-210.2-2680.9z" class="st4"/><g id="Shape_82_" transform="translate(0.000000, 2.000000)"><path id="Shape_84_" d="M-220.6-2683.6c0.3-0.3,1.2-0.7,2-1.1c0-0.1-0.1-0.3-0.1-0.4c-0.1,0-0.4-0.2-0.4-0.2v-0.1 c0-0.1,0-0.1,0-0.1c0-0.1,0.2-0.3,0.2-0.4c0-0.1,0.1-0.5,0.1-0.5c0-0.1,0.1-0.1,0.2-0.1c0.1-0.1,0.2-0.9,0.2-0.9 c0-0.3-0.1-0.1-0.1-0.3v-0.7c0-0.9-0.7-1.4-1.6-1.4l0,0c-0.9,0-1.6,0.6-1.6,1.4v0.7c0,0.2-0.1,0.1-0.1,0.3c0,0,0.1,0.8,0.2,0.9 c0.1,0,0.2,0.1,0.2,0.1s0.1,0.4,0.1,0.5s0.2,0.3,0.2,0.4v0.1c0,0.1,0,0.1,0,0.1s-0.3,0.1-0.4,0.2c-0.1,0.1-0.1,0.3-0.1,0.4 c-0.4,0.1-2.2,1-2.4,1.2c-0.1,0.2-0.1,1.1-0.1,1.1v0.1c0,0.2,0.2,0.4,0.4,0.4h2.6C-221-2683.2-220.8-2683.5-220.6-2683.6 L-220.6-2683.6L-220.6-2683.6z" class="st4"/><path id="Shape_83_" d="M-206.2-2683.6c-0.2-0.2-2-1.1-2.4-1.2c0-0.1,0-0.3-0.1-0.4c-0.1,0-0.4-0.2-0.4-0.2v-0.1 c0-0.1,0-0.1,0-0.1c0-0.1,0.2-0.3,0.2-0.4s0.1-0.5,0.1-0.5c0-0.1,0.1-0.1,0.2-0.1c0.1-0.1,0.2-0.9,0.2-0.9c0-0.3-0.1-0.1-0.1-0.3 v-0.7c0-0.9-0.7-1.4-1.6-1.4l0,0c-0.9,0-1.6,0.6-1.6,1.4v0.7c0,0.2-0.1,0.1-0.1,0.3c0,0,0.1,0.8,0.2,0.9c0.1,0,0.2,0.1,0.2,0.1 s0.1,0.4,0.1,0.5s0.2,0.3,0.2,0.4v0.1c0,0.1,0,0.1,0,0.1s-0.3,0.1-0.4,0.2c-0.1,0-0.1,0.2-0.1,0.3c0.8,0.4,1.7,0.9,2,1.1 c0.1,0.1,0.4,0.4,0.5,1.6h2.6c0.2,0,0.4-0.2,0.4-0.4v-0.1C-206.1-2682.5-206.1-2683.4-206.2-2683.6L-206.2-2683.6L-206.2-2683.6z" class="st4"/></g></g><g id="Group_11_" transform="translate(10.000000, 3219.000000)"><path id="Shape_78_" d="M-225.1-2687v9h16v-9H-225.1L-225.1-2687z M-221.2-2680h-1.6c-0.1,0-0.3-0.1-0.3-0.2v-0.1 c0,0,0-0.6,0.1-0.6c0.1-0.1,1.2-0.6,1.5-0.7c0,0,0-0.2,0.1-0.2l0.2-0.1v-0.1v-0.1c0-0.1-0.1-0.2-0.1-0.2c0-0.1-0.1-0.3-0.1-0.3 c0-0.1-0.1-0.1-0.1-0.1c-0.1,0-0.2-0.5-0.2-0.5c0-0.2,0-0.1,0-0.2v-0.4c0-0.5,0.6-0.9,1.1-0.9l0,0c0.5,0,1.1,0.3,1.1,0.9v0.4v0.2 c0,0-0.1,0.5-0.2,0.5s-0.1,0-0.1,0.1c0,0,0,0.2-0.1,0.3c0,0.1-0.1,0.2-0.1,0.2v0.1v0.1l0.2,0.1c0.1,0,0.1,0.2,0.1,0.2h0.1 c-0.5,0.2-1.2,0.6-1.3,0.7C-221-2680.8-221.2-2680.7-221.2-2680L-221.2-2680L-221.2-2680z M-213.8-2679.9c0,0.1-0.2,0.9-0.3,0.9 h-5.9c-0.2,0-0.3-0.7-0.3-0.9v-0.1c0,0,0-0.7,0.1-0.9c0.2-0.2,1.7-0.9,1.9-0.9c0-0.1,0-0.3,0.1-0.3s0.3-0.1,0.3-0.1v-0.1 c0-0.1,0-0.1,0-0.1c0-0.1-0.2-0.2-0.2-0.3s-0.1-0.4-0.1-0.4c0-0.1-0.1-0.1-0.2-0.1c-0.1-0.1-0.2-0.7-0.2-0.7 c0-0.2,0.1-0.1,0.1-0.3v-0.6c0-0.7,0.6-1.1,1.4-1.1l0,0c0.7,0,1.3,0.4,1.3,1.1v0.6c0,0.1,0.1,0.1,0.1,0.3c0,0-0.1,0.6-0.2,0.7 c-0.1,0-0.2,0.1-0.2,0.1s0,0.3-0.1,0.4c0,0.1-0.2,0.3-0.2,0.3v0.1c0,0.1,0,0.1,0,0.1s0.2,0.1,0.3,0.1s0.1,0.2,0.1,0.3 c0.3,0.1,1.8,0.8,1.9,0.9c0.1,0.1,0.1,0.9,0.1,0.9L-213.8-2679.9L-213.8-2679.9z M-211.1-2680.2c0,0.1-0.2,0.2-0.3,0.2h-1.6 c0-0.7-0.1-0.8-0.2-0.9c-0.1-0.1-0.8-0.5-1.3-0.7h0.1c0,0,0-0.2,0.1-0.2l0.2-0.1v-0.1v-0.1c0-0.1-0.1-0.2-0.1-0.2 c0-0.1-0.1-0.3-0.1-0.3c0-0.1-0.1-0.1-0.1-0.1c-0.1,0-0.2-0.5-0.2-0.5v-0.2v-0.4c0-0.5,0.6-0.9,1.1-0.9l0,0c0.5,0,1.1,0.3,1.1,0.9 v0.4c0,0.1,0,0,0,0.2c0,0-0.1,0.5-0.2,0.5c0,0-0.1,0-0.1,0.1c0,0,0,0.2-0.1,0.3c0,0.1-0.1,0.2-0.1,0.2v0.1v0.1l0.2,0.1 c0.1,0,0.1,0.2,0.1,0.2c0.2,0.1,1.3,0.6,1.5,0.7C-211.1-2680.8-211.1-2680.3-211.1-2680.2L-211.1-2680.2L-211.1-2680.2 L-211.1-2680.2z" class="st18"/><path id="Shape_50_" d="M-210.1-2689h-7v-1h-8v2h15V-2689L-210.1-2689z" class="st18"/></g><g id="Group_10_" transform="translate(10.000000, 3259.000000)"><path id="Shape_48_" d="M-225.1-2687v9h16v-9H-225.1L-225.1-2687z M-221.2-2680h-1.6c-0.1,0-0.3-0.1-0.3-0.2v-0.1 c0,0,0-0.6,0.1-0.6c0.1-0.1,1.2-0.6,1.5-0.7c0,0,0-0.2,0.1-0.2l0.2-0.1v-0.1v-0.1c0-0.1-0.1-0.2-0.1-0.2c0-0.1-0.1-0.3-0.1-0.3 c0-0.1-0.1-0.1-0.1-0.1c-0.1,0-0.2-0.5-0.2-0.5c0-0.2,0-0.1,0-0.2v-0.4c0-0.5,0.6-0.9,1.1-0.9l0,0c0.5,0,1.1,0.3,1.1,0.9v0.4v0.2 c0,0-0.1,0.5-0.2,0.5s-0.1,0-0.1,0.1c0,0,0,0.2-0.1,0.3c0,0.1-0.1,0.2-0.1,0.2v0.1v0.1l0.2,0.1c0.1,0,0.1,0.2,0.1,0.2h0.1 c-0.5,0.2-1.2,0.6-1.3,0.7C-221-2680.8-221.2-2680.7-221.2-2680L-221.2-2680L-221.2-2680z M-213.8-2679.9c0,0.1-0.2,0.9-0.3,0.9 h-5.9c-0.2,0-0.3-0.7-0.3-0.9v-0.1c0,0,0-0.7,0.1-0.9c0.2-0.2,1.7-0.9,1.9-0.9c0-0.1,0-0.3,0.1-0.3s0.3-0.1,0.3-0.1v-0.1 c0-0.1,0-0.1,0-0.1c0-0.1-0.2-0.2-0.2-0.3s-0.1-0.4-0.1-0.4c0-0.1-0.1-0.1-0.2-0.1c-0.1-0.1-0.2-0.7-0.2-0.7 c0-0.2,0.1-0.1,0.1-0.3v-0.6c0-0.7,0.6-1.1,1.4-1.1l0,0c0.7,0,1.3,0.4,1.3,1.1v0.6c0,0.1,0.1,0.1,0.1,0.3c0,0-0.1,0.6-0.2,0.7 c-0.1,0-0.2,0.1-0.2,0.1s0,0.3-0.1,0.4c0,0.1-0.2,0.3-0.2,0.3v0.1c0,0.1,0,0.1,0,0.1s0.2,0.1,0.3,0.1s0.1,0.2,0.1,0.3 c0.3,0.1,1.8,0.8,1.9,0.9c0.1,0.1,0.1,0.9,0.1,0.9L-213.8-2679.9L-213.8-2679.9z M-211.1-2680.2c0,0.1-0.2,0.2-0.3,0.2h-1.6 c0-0.7-0.1-0.8-0.2-0.9c-0.1-0.1-0.8-0.5-1.3-0.7h0.1c0,0,0-0.2,0.1-0.2l0.2-0.1v-0.1v-0.1c0-0.1-0.1-0.2-0.1-0.2 c0-0.1-0.1-0.3-0.1-0.3c0-0.1-0.1-0.1-0.1-0.1c-0.1,0-0.2-0.5-0.2-0.5v-0.2v-0.4c0-0.5,0.6-0.9,1.1-0.9l0,0c0.5,0,1.1,0.3,1.1,0.9 v0.4c0,0.1,0,0,0,0.2c0,0-0.1,0.5-0.2,0.5c0,0-0.1,0-0.1,0.1c0,0,0,0.2-0.1,0.3c0,0.1-0.1,0.2-0.1,0.2v0.1v0.1l0.2,0.1 c0.1,0,0.1,0.2,0.1,0.2c0.2,0.1,1.3,0.6,1.5,0.7C-211.1-2680.8-211.1-2680.3-211.1-2680.2L-211.1-2680.2L-211.1-2680.2 L-211.1-2680.2z" class="st4"/><path id="Shape_47_" d="M-210.1-2689h-7v-1h-8v2h15V-2689L-210.1-2689z" class="st4"/></g><g id="Group_4_" class="st0" transform="translate(9.000000, 3294.000000)"><path id="Shape_37_" d="M-84.3-2560.1l-8.9-5.9c-6-4-9.6-10.7-9.6-17.9c-0.1-16.4,0.1-6.4,0.1-26.9 c0-23.4-12.5-54.6-36-62.8c-0.2-7.9-6.5-16.4-14.4-16.4s-14.2,8.6-14.4,16.4c-23.5,8.2-36,39.3-36,62.8c0,20.5,0.2,10.5,0.1,26.9 c0,7.2-3.7,13.9-9.6,17.9l-8.9,5.9c-2,1.3-3.2,3.6-3.2,6v5.7c0,2.7,2.1,4.8,4.8,4.8h134.4c2.6,0,4.8-2.1,4.8-4.8v-5.7 C-81.1-2556.6-82.3-2558.8-84.3-2560.1L-84.3-2560.1L-84.3-2560.1z" class="st20"/><path id="Shape_36_" d="M-136.5-2541.2h-33.2c-1.5,0-2.6,1.3-2.4,2.8c1.3,9.3,9.3,16.4,19,16.4 c9.7,0,17.7-7.1,19-16.4C-133.9-2539.9-135-2541.2-136.5-2541.2L-136.5-2541.2L-136.5-2541.2z" class="st20"/></g><g id="Group_3_" class="st3" transform="translate(13.000000, 3535.000000)"><path id="Shape_33_" d="M-211.8-2685.7c-0.7-3.3-3.9-4.4-7.1-3.7c-2.9,0.6-5.7,2.9-5.6,6c0,1.4,0.9,2.5,2.1,3.2 c0.1,0.1,0.2,0.2,0.2,0.3c0,0.6-0.4,1-1,1.1c-0.3,0.1-0.3,0.2,0,0.3c1.2,0.1,2.5,0,3.5-0.7c0.9,0.1,1.8,0.2,2.6,0.1 C-213.4-2679.3-211-2682-211.8-2685.7L-211.8-2685.7L-211.8-2685.7z" class="st21"/></g><path id="Shape_32_" d="M-198.8,919.3c-0.7-3.3-3.9-4.4-7.1-3.7c-2.9,0.6-5.7,2.9-5.6,6 c0,1.4,0.9,2.5,2.1,3.2c0.1,0.1,0.2,0.2,0.2,0.3c0,0.6-0.4,1-1,1.1c-0.3,0.1-0.3,0.2,0,0.3c1.2,0.1,2.5,0,3.5-0.7 c0.9,0.1,1.8,0.2,2.6,0.1C-200.4,925.7-198,923-198.8,919.3L-198.8,919.3L-198.8,919.3z" class="st4"/><path id="Shape_24_" d="M-83.1,1035h8l-4,4L-83.1,1035L-83.1,1035z" class="st22"/><path id="Shape_12_" d="M-214.1,1076.5l1.6,2.6h-3.3L-214.1,1076.5L-214.1,1076.5z M-214.1,1073l-5,8h10L-214.1,1073L-214.1,1073z" class="st4"/><path id="Shape_11_" d="M-221.8,1141c-0.6-0.6-1.5-1-2.3-1h16c-0.9,0-1.7,0.4-2.3,1 l-4.5,4.5c-0.6,0.7-1.7,0.7-2.3,0L-221.8,1141L-221.8,1141z" class="st23"/><g id="Imported-Layers-9-_x2B_-Path_8_" transform="translate(9.000000, 1897.000000)"><g id="Imported-Layers-9_8_"><path id="Fill-1_18_" d="M-207.1-2675c0,0.6-0.4,1-1,1h-16c-0.6,0-1-0.4-1-1v-11h18V-2675" class="st24"/><path id="Fill-2_20_" d="M-224.1-2690h6.1c0.3,0,0.5,0.1,0.7,0.3l0.9,0.9c0.6,0.7,1,0.8,1.3,0.8h7c0.6,0,1,0.4,1,1 v1h-18v-3C-225.1-2689.6-224.7-2690-224.1-2690" class="st25"/></g></g><g id="Imported-Layers-9-_x2B_-Path_7_" transform="translate(9.000000, 1937.000000)"><g id="Imported-Layers-9_7_"><path id="Fill-1_17_" d="M-207.1-2675c0,0.6-0.4,1-1,1h-16c-0.6,0-1-0.4-1-1v-11h18V-2675" class="st26"/><path id="Fill-2_19_" d="M-224.1-2690h6.1c0.3,0,0.5,0.1,0.7,0.3l0.9,0.9c0.6,0.7,1,0.8,1.3,0.8h7c0.6,0,1,0.4,1,1v1 h-18v-3C-225.1-2689.6-224.7-2690-224.1-2690" class="st4"/></g></g><g id="Imported-Layers-9-_x2B_-Path_6_" transform="translate(9.000000, 1977.000000)"><g id="Imported-Layers-9_6_"><path id="Fill-1_16_" d="M-207.1-2675c0,0.6-0.4,1-1,1h-16c-0.6,0-1-0.4-1-1v-11h18V-2675" class="st24"/><path id="Fill-2_18_" d="M-224.1-2690h6.1c0.3,0,0.5,0.1,0.7,0.3l0.9,0.9c0.6,0.7,1,0.8,1.3,0.8h7c0.6,0,1,0.4,1,1 v1h-18v-3C-225.1-2689.6-224.7-2690-224.1-2690" class="st25"/></g></g><g id="Imported-Layers-9-_x2B_-Path_5_" transform="translate(9.000000, 2017.000000)"><g id="Imported-Layers-9_5_"><path id="Fill-1_15_" d="M-207.1-2675c0,0.6-0.4,1-1,1h-16c-0.6,0-1-0.4-1-1v-11h18V-2675" class="st26"/><path id="Fill-2_17_" d="M-224.1-2690h6.1c0.3,0,0.5,0.1,0.7,0.3l0.9,0.9c0.6,0.7,1,0.8,1.3,0.8h7c0.6,0,1,0.4,1,1v1 h-18v-3C-225.1-2689.6-224.7-2690-224.1-2690" class="st4"/></g></g><g id="Page-1_15_" class="st27" transform="translate(9.000000, 1233.000000)"><g id="Imported-Layers-2_2_"><path id="Fill-1_14_" d="M-95.4-2597.7c7.4-4.2,12.6-10.8,12.9-19.2c0.4-18.4-16.8-31.9-34.1-35.7 c-2-0.4-4.1-0.8-6.1-1c-0.2-1.6-0.5-3.3-0.8-5c-5.6-25.9-31.1-34.5-55.9-29c-22.7,5-45.4,22.8-44.8,47 c0.3,11.1,7.2,19.7,16.9,25.3c0.6,0.5,1.4,1.3,1.5,2.3c0.2,4.7-3.2,7.8-7.6,9c-2.3,0.6-2.8,1.8,0.1,2.1 c9.3,0.6,20.2,0.3,27.8-5.9c7.1,1,14.1,1.5,21,1c2.8-0.2,5.5-0.6,8.1-1.1c5.1,9.6,15.6,15.9,28.7,16.8c5.2,0.4,10.6,0,15.9-0.7 c5.8,4.7,14.1,5,21.2,4.5c2.2-0.2,1.8-1.1,0.1-1.6c-3.3-0.9-6-3.3-5.8-6.9C-96.5-2596.7-95.9-2597.3-95.4-2597.7" class="st28"/><path id="Fill-2_16_" d="M-96.8-2599.5l0.1-0.1l0.1-0.1c9.5-5.4,11.6-12.5,11.8-17.4c0.4-17.2-16-29.9-32.4-33.5 c-2.2-0.5-4.4-0.8-6.6-1c0.8,10-1.7,19.1-7.3,26.6c-5.6,7.5-13.9,12.8-23.9,15.3c0.7,1.3,1.5,2.6,2.4,3.9 c5.4,7.2,14.1,11.5,24.7,12.3c1.3,0.1,2.7,0.2,4.1,0.2c3.4,0,7-0.3,11.3-0.9l1-0.1l0.7,0.6c3.3,2.7,8.1,4.1,14.4,4.2 c-1.8-1.7-2.7-4-2.6-6.5C-98.7-2597.3-98-2598.6-96.8-2599.5" class="st4"/><path id="Fill-3_2_" d="M-207.5-2604c-0.3,0-0.6,0-1,0c3.1-2.2,4.9-5.5,4.7-9.2c-0.1-1.5-0.9-2.9-2.3-4l-0.1-0.1 l-0.1-0.1c-9.9-5.7-15.6-14-15.8-23.4c-0.5-23,21.2-39.9,43.1-44.7c4.6-1,9.2-1.5,13.7-1.5c20.9,0,35.7,10.8,39.6,28.8 c2.7,12.4,0.6,23.6-6.1,32.6c-7.2,9.6-18.9,15.4-33,16.4c-1.8,0.1-3.6,0.2-5.5,0.2l0,0c-4.5,0-9.2-0.4-15-1.2l-1-0.1l-0.7,0.6 C-191.8-2605.8-198.4-2604-207.5-2604" class="st4"/></g></g><g id="empty-cloud_1_" transform="translate(4.000000, 899.000000)"><path id="Fill-1_13_" d="M-224.8-2617.5c0,18.4,14.1,33.4,31.4,33.4h89.9c17.3,0,31.4-15,31.4-33.4 c0-17.9-13.3-32.6-30-33.4v-0.1c0-21.5-16.4-39-36.7-39c-13.1,0-24.6,7.3-31.1,18.3c-2.2-1-4.6-1.6-7.1-1.6c-9.9,0-18,8.6-18,19.1 c0,1.1,0.1,2.2,0.2,3.2C-211.4-2650.3-224.8-2635.6-224.8-2617.5" class="st29"/><path id="Fill-2_15_" d="M-193.2-2586.3c-16.2,0-29.3-14-29.3-31.2c0-16.9,12.4-30.6,28.2-31.2l2.4-0.1l-0.4-2.4 c-0.1-0.8-0.2-1.8-0.2-2.9c0-9.4,7.1-17,15.8-17c2.1,0,4.2,0.5,6.2,1.4l1.8,0.8l1-1.7c6.3-10.8,17.3-17.2,29.3-17.2 c19,0,34.5,16.5,34.5,36.8v2.1l2,0.1c15.7,0.8,27.9,14.5,27.9,31.2c0,17.2-13.1,31.2-29.3,31.2L-193.2-2586.3" class="st4"/></g><g id="Fill-1-_x2B_-Fill-3_1_" transform="translate(16.000000, 1070.000000)"><path id="Fill-1_12_" d="M-217.7-2583.3c-4,0-7.2-3.2-7.2-7.2v-76.9c0-0.9,0.4-1.8,1.1-2.4c-0.1-0.2-0.1-0.5-0.1-0.7 v-12.3c0-4,3.2-7.2,7.2-7.2h49.8c0.8,0,1.6,0.3,2.2,0.9l7.8,7.8h46.8c0.1,0,0.2,0,0.3,0c3.8,0,6.9,3.2,6.9,7.2v3.6h2.1 c1.7,0,3.1,1.4,3.1,3.1v76.9c0,4-3.2,7.2-7.2,7.2L-217.7-2583.3" class="st29"/><path id="Fill-2_14_" d="M-99.8-2590.5c0,2.8-2.3,5.1-5.1,5.1h-112.8c-2.8,0-5.1-2.3-5.1-5.1v-76.9c0-0.6,0.5-1,1-1 h121c0.6,0,1,0.5,1,1L-99.8-2590.5L-99.8-2590.5z M-221.8-2682.8c0-2.8,2.3-5.1,5.1-5.1h49.8c0.3,0,0.5,0.1,0.7,0.3l8.1,8.1 c0.2,0.2,0.5,0.3,0.7,0.3h47.3c2.8-0.2,5.1,2.3,5.1,5.1v3.6c0,0.6-0.5,1-1,1h-114.8c-0.6,0-1-0.5-1-1V-2682.8L-221.8-2682.8z" class="st4"/></g><path id="Fill-1_11_" d="M-150.5-1228.2c1.1,0,1.9,0.9,1.9,1.9v29c0,1.1-0.9,1.9-1.9,1.9 H-168c-0.4,0-0.8,0-1.2,0c-7.9,0-13.3-1.9-16.4-5.8c-0.1-0.1-15.7-29.7-16.6-31.3c-0.9-1.6-1.7-3.4-2-5.6c-0.3-2.7-0.2-5.6,1.1-8 l6.5-12.5l-7.8-6.1c-1.7-1.3-1.3-2.4,0.8-2.4l29.1-0.3c0.5,0,1.2,0.4,1.4,0.8l14.7,27.3c1,1.9,0.3,2.6-1.6,1.6l-8.4-4.5l-8.5,13.9 L-150.5-1228.2L-150.5-1228.2z M-96.9-1266.7c-0.5-0.9-1.6-1.3-2.5-0.7l-24.7,15.1c-0.9,0.6-1.2,1.8-0.7,2.7l11.6,21.5h-13.3 l-0.5-9.9c-0.1-2.1-1-2.3-2.1-0.5l-14.4,26c-0.3,0.5-0.3,1.2,0,1.7l14.6,26.6c1,1.9,1.9,1.7,2-0.5l0.4-10.8h9.9c0.3,0,0.6,0,0.9,0 c5.2,0,10.7-3.4,13-7.8c0,0,13.1-24.8,15.3-29.1c2.2-4.3,3.2-9.4,2-12.1L-96.9-1266.7L-96.9-1266.7z M-98.2-1291 c1.1-1.8,0.5-2.5-1.4-1.5l-9.3,4.9l-4.8-8.9c-2.1-4.7-7.9-8.6-13-8.6c-0.1,0-0.2,0-0.4,0c0,0-27.4,0.2-31.8,0.2 c-4.3,0-9.6,0.8-12.1,4.4c-2.5,3.7-13.5,20.7-13.5,20.7c-0.6,0.9-0.3,2.1,0.6,2.6l24.9,14.8c0.9,0.5,2.1,0.2,2.7-0.7l12.7-20.8 l6.4,11.9l-8,5.2c-1.8,1.1-1.5,2.1,0.6,2.1l29.1,0.3c0.5,0,1.2-0.4,1.5-0.8L-98.2-1291L-98.2-1291z" class="st29"/><path id="Fill-2_13_" d="M-123.3-1250.6l12,22.3c11.8,0.7,26.4-3.7,23.7-15.6l-11.1-21.8 L-123.3-1250.6L-123.3-1250.6z M-128.9-1235.1l-13,23.4l13,23.8l0.3-9.5h11.9c4.3,0.4,9.9-2.5,12-6.7l15.2-28.5 c-5,5.1-11.5,6.4-18.9,6.4h-20L-128.9-1235.1L-128.9-1235.1z M-157.9-1264l13.2-21.6c-5.1-10.9-17.3-22.3-24.8-13.6l-13.3,20.5 L-157.9-1264L-157.9-1264z M-141.9-1266.5l26.3,0.2l14-23.1l-8.3,4.3l-5.8-10.6c-1.8-4.1-7-7.7-11.6-7.5l-31.8,0.2 c6.8,2,11,7.2,14.7,13.8l9.7,17.9L-141.9-1266.5L-141.9-1266.5z M-201.8-1265.2l7.7,6l-7.3,13.9c-3.6,6.4,2.6,12.7,6.6,14.8 c3.9,2.1,10,2.4,15.6,2.3l10.2-16.7l7.7,4.2l-13.4-24.8L-201.8-1265.2L-201.8-1265.2z M-200.7-1233l16.6,30.6 c3.3,4.2,9.6,5.2,16.1,5.1h17.5v-29l-33.1-0.2C-188.8-1226.2-195.5-1227.3-200.7-1233L-200.7-1233L-200.7-1233z" class="st4"/><g id="Page-1_14_" transform="translate(6.000000, 3670.000000)"><path id="Fill-54_1_" d="M-224.7-2686c-0.8-1.5-0.4-2.9,1.1-3.8c0.5-0.3,1-0.3,1.4,0.2c0.2,0.2,0.9,1.1,1.1,1.3 c0.6,0.7,0.6,1.2-0.5,2.2c-0.4,0.4-0.3,1,0,1.3l3.3,3.3c0.3,0.3,0.9,0.4,1.3,0c1-1,1.5-1,2.2-0.5c0.2,0.2,1.1,0.9,1.3,1.1 c0.5,0.4,0.5,0.8,0.2,1.4c-0.9,1.5-2.3,2-3.8,1.1c-1.6-0.9-3.2-1.8-4.5-3.1C-222.9-2682.8-223.8-2684.4-224.7-2686L-224.7-2686z" class="st30"/></g><path id="Fill-2-Copy-2_1_" d="M-167.1-1127.2l-3.8,2.2l1.1-4.1l-3.3-2.5l4.3-0.5l1.7-3.9 l1.7,3.9l4.3,0.5l-3.3,2.5l1.1,4.1L-167.1-1127.2" class="st31"/><path id="Imported-Layers-Copy-27_1_" d="M-128.1-1130.4l7.3-7.3c0.4-0.4,1-0.4,1.4,0 s0.4,1,0,1.4l-6.3,6.3l6.3,6.3c0.4,0.4,0.4,1,0,1.4c-0.2,0.2-0.4,0.3-0.7,0.3s-0.5-0.1-0.7-0.3l-7.3-7.3L-128.1-1130.4" class="st32"/><path id="Shape_10_" d="M-195.6,1201.5l-17.6,10.8l4.8-20.1l-15.7-13.4l20.6-1.6l7.9-19.1l7.9,19.1l20.6,1.6 l-15.7,13.4l4.8,20.1L-195.6,1201.5z" class="st33"/><path id="Shape_9_" d="M-195.6,1281.5l-17.6,10.8l4.8-20.1l-15.7-13.4l20.6-1.6l7.9-19.1l7.9,19.1l20.6,1.6 l-15.7,13.4l4.8,20.1L-195.6,1281.5z" class="st34"/><path id="Shape_8_" d="M-216.4,1334.4h2c-0.3-2.6,2.8-3.5,2.8-6c0-2.2-1.5-3.3-3.7-3.3c-1.5,0-2.6,0.7-3.5,1.7 l1.3,1.2c0.6-0.6,1.2-1,2.1-1c1,0,1.6,0.6,1.6,1.6C-213.7,1330.3-216.8,1331.5-216.4,1334.4L-216.4,1334.4z M-216.8,1337.4 c0,0.9,0.6,1.6,1.5,1.6c0.8,0,1.5-0.7,1.5-1.6s-0.7-1.6-1.5-1.6C-216.2,1335.8-216.8,1336.5-216.8,1337.4L-216.8,1337.4z" class="st35"/><path id="Shape_7_" d="M-217.2,1477.8c-1.6-1.6-4.6-2.8-6.8-2.8l0,0h24c-2.2,0-5.3,1.3-6.8,2.8l-3.8,3.8 c-0.8,0.8-2,0.8-2.8,0L-217.2,1477.8L-217.2,1477.8z" class="st4"/><path id="Rectangle-17-Copy-4_1_" d="M-122.1,1772h12l-6,6L-122.1,1772z" class="st36"/><path id="Rectangle-17-Copy-5_1_" d="M-122.1,1818h12l-6-6L-122.1,1818z" class="st36"/><path id="Fill-1-Copy-8_1_" d="M-180,1739.9c1.4,1.4,4.4,1.5,5.9,0.1l2.9-2.9 c1.6-1.6,1.5-4.2-0.1-5.9c-1.6-1.7-4.3-1.7-5.9-0.1l-2.3,2.3c0.8,0,1.7,0.1,2.5,0.5l1.2-1.2c0.8-0.8,2.1-0.8,2.9,0.1 c0.8,0.8,0.8,2.1,0.1,2.9l-2.9,2.9c-0.8,0.8-2.4,0.5-3.4,0.5L-180,1739.9z M-176.2,1736.1c-1.4-1.4-4.5-1.5-5.9-0.1l-2.9,2.9 c-1.6,1.6-1.5,4.2,0.1,5.9c1.6,1.7,4.3,1.7,5.9,0.1l2.3-2.3c-0.8,0-1.7-0.1-2.5-0.5l-1.2,1.2c-0.8,0.8-2.1,0.8-2.9-0.1 c-0.8-0.8-0.8-2.1-0.1-2.9l2.9-2.9c0.6-0.6,1.5-0.5,3.4-0.5l0,0L-176.2,1736.1z" class="st37"/><path id="Fill-1-Copy-6_1_" d="M-172.1,1703v-1c0-3.3-2.7-6-6-6c-3.3,0-6,2.7-6,6v1h2v-1 c0-2.2,1.8-4,4-4c2.2,0,4,1.8,4,4v1H-172.1z M-184.1,1704c-0.6,0-1,0.5-1,1v6c0,0.5,0.4,1,1,1h12c0.6,0,1-0.5,1-1v-6 c0-0.5-0.4-1-1-1H-184.1z M-179.1,1706h2v4h-2V1706z" class="st37"/><path id="Fill-1-Copy-7_1_" d="M-178.1,1666c-4.4,0-8,3.6-8,8s3.6,8,8,8s8-3.6,8-8 S-173.7,1666-178.1,1666z M-176.7,1669.6l0.2-0.1L-176.7,1669.6h0.3l-0.1,0.2l0.1,0.5h-0.1v0.2l-0.2,0.1h-0.1l0.3-0.2h0.1l0,0h-0.2 v-0.2h0.2v-0.2h-0.2L-176.7,1669.6L-176.7,1669.6L-176.7,1669.6z M-177.1,1670.2L-177.1,1670.2L-177.1,1670.2l0.3-0.1l0.1,0.1 l-0.1,0.1l0.1,0.1l-0.3,0.2l-0.1-0.1V1670.2L-177.1,1670.2L-177.1,1670.2L-177.1,1670.2z M-179.9,1666.9L-179.9,1666.9l0.5,0.1 l-0.2,0.1l-0.1,0.1l-0.3,0.1h-0.1h-0.2v0.1l-0.2,0.2l-0.3-0.1v-0.1h0.2l0.2-0.2l0.4-0.1l-0.2-0.1v-0.2L-179.9,1666.9L-179.9,1666.9 z M-180.7,1667.2l0.3-0.1L-180.7,1667.2l-0.1,0.2L-180.7,1667.2L-180.7,1667.2z M-180.9,1667.4L-180.9,1667.4l0.2,0.2l-0.1,0.1 l-0.2-0.1L-180.9,1667.4L-180.9,1667.4z M-181.2,1667.6L-181.2,1667.6l0.2,0.1l-0.2,0.2l-0.4-0.1L-181.2,1667.6L-181.2,1667.6z M-181.9,1668.2l0.3-0.2l0.2,0.1l-0.1,0.2l0.2-0.1l0.2,0.2l0.1,0.3l-0.2,0.2l0.2,0.1l0.1,0.2l-0.3,0.2l-0.1-0.2l-0.2,0.1l0.1,0.3 l-0.1,0.2l-0.1-0.2h-0.2l0.1,0.1v0.1l-0.2-0.2l-0.1-0.2h-0.2l0.3-0.1h0.5v-0.2v-0.2l-0.2-0.5l-0.2,0.1l-0.3-0.1L-181.9,1668.2 L-181.9,1668.2z M-182.9,1668.2c0.2-0.2,0.5-0.4,0.7-0.5l-0.2,0.2h0.2l-0.3,0.2l-0.1,0.2l-0.2,0.1L-182.9,1668.2L-182.9,1668.2 L-182.9,1668.2z M-179.7,1679l-0.1,0.2h-0.1l0.1,0.4l-0.1,0.4h-0.2l-0.3,0.2l0.1,0.4l-0.1,0.6h-0.2h0.2l0,0h-0.2v0.1h0.2l0.1,0.2 l0.4,0.2c-0.2-0.1-0.4-0.1-0.6-0.2l-0.3-0.1l-0.5-0.4l-0.7-0.8l-0.4-0.6l-0.4-0.2l-1-1.1v-0.2l-0.1-0.1l0.1-0.4l-0.1-0.5l0.3-0.3 l0.3-0.1v-0.1l-0.3-0.1l-0.2,0.1l-0.2-0.1h-0.1l-0.2-0.2l-0.1-0.2l-0.2-0.2l-0.4-0.5h-0.1l-0.3-0.4l-0.1-0.9l0,0 c0-2.2,1-4.2,2.6-5.6l-0.1,0.1l0.1,0.1l0.1-0.1l0.2,0.1l0.2-0.1l0.2-0.1v-0.1l0.3-0.2l-0.2,0.2l-0.1,0.1l-0.1,0.1v0.2l0.3-0.2v-0.1 l0.2,0.2l-0.3,0.3h-0.2l-0.2,0.1l-0.2,0.1l-0.2,0.1l-0.2,0.1l-0.5,0.4l0.1,0.1l-0.1,0.2l0.2,0.1l0.1,0.3l0.2,0.1l-0.1,0.4l0.1,0.2 l0.2-0.1l0.1-0.4l0.2-0.1l0.1-0.2v-0.2l0.2-0.2l0.1-0.4h0.1h0.1l0.1,0.1l0.1,0.2h0.1l-0.1,0.3l0.1,0.1l0.2-0.1l0.2-0.2l0.1,0.4 l-0.1,0.1l0.1,0.2l0.3,0.1l-0.4,0.1h0.3l0.1,0.1v0.2l-0.3,0.1l-0.2,0.1l-0.7-0.1l-0.5,0.4l0.5-0.2h0.2l-0.2,0.1l0.1,0.3l0.3,0.1 l-0.5,0.2c0,0,0.2-0.2,0.1-0.2s-0.5,0.1-0.5,0.1l-0.1,0.2l-0.1,0.1l-0.3,0.1v0.2h-0.1v0.2v0.3l-0.3,0.2l-0.4,0.2v0.4v0.5l-0.2-0.3 v-0.2l-0.2-0.1l-0.4-0.1v0.1l-0.3-0.1l-0.2,0.2l-0.1,0.7l0.1,0.5l0.3,0.1l0.4-0.1v-0.2l0,0l-0.3,0.6l0.3,0.1v0.6l0.3,0.3h0.2 l0.2,0.2l0.1,0.3h0.1v-0.2h0.1l0.4,0.2h0.3l0.2,0.1l-0.1,0.1h0.2l0.3,0.3l0.5,0.1l0.4,0.5l-0.2,0.2l0.3,0.1l0.2-0.1l0.4,0.2v0.1 l0.2-0.2h0.2h0.2l0.3,0.3l0.2,0.1l0.2,0.3L-179.7,1679L-179.7,1679z M-182.5,1669.1v0.2h-0.2l-0.1-0.1L-182.5,1669.1L-182.5,1669.1 L-182.5,1669.1z M-181,1671.6l-0.1,0.2l-0.5-0.1l0.4-0.4L-181,1671.6L-181,1671.6z M-182.7,1675.5h-0.2v-0.1L-182.7,1675.5 L-182.7,1675.5L-182.7,1675.5z M-183,1675.4h-0.3l-0.1-0.2h0.2L-183,1675.4L-183,1675.4z M-183.5,1675.1h-0.4l-0.4-0.4l-0.1,0.1 v-0.1h0.2L-183.5,1675.1L-183.5,1675.1z M-178.2,1668h0.2H-178.2l-0.2,0.3h-0.1l-0.1,0.3l-0.3,0.2l-0.1-0.1l-0.3,0.3l0.1,0.1 l-0.2,0.3v0.2l-0.1,0.2l-0.2,0.1l-0.1-0.2l-0.2,0.1l-0.2-0.2l-0.1-0.3h0.2l-0.1-0.1l-0.1,0.1v-0.3l0.2-0.1l0.2-0.4v-0.2l-0.2,0.1 l0.1-0.2l0.1-0.4l-0.2-0.1l0.1-0.1l0.1-0.1l0.3-0.1l0.2-0.2h0.3h0.2h0.3l-0.1,0.2l0.2,0.2v0.2h-0.2l0.2,0.1L-178.2,1668 L-178.2,1668h-0.4H-178.2L-178.2,1668z M-180.2,1668.3l0.2-0.1v0.2L-180.2,1668.3L-180.2,1668.3L-180.2,1668.3z M-170.8,1674.2 l-0.3,0.6l-0.1-0.1l-0.2-0.6l-0.5-0.9v-0.1l-0.1,0.1l-0.2-0.2l0.3,0.7l0.4,0.9l0.2,0.2l0.1,0.3l0.3-0.2l-0.1,0.7l-0.4,0.7l-0.5,0.8 l-0.1,0.5l-0.2,0.5l-0.6,0.4v0.1l-0.2,0.3l-0.4,0.2v0.1l-0.8,0.7l-0.4,0.1v-0.1l0.2-0.2l-0.1-0.4l0.1-0.4l-0.1-0.4l0.2-0.4v-0.4 v-0.2l-0.3-0.5l0.2-0.2l0.1-0.3l-0.1-0.2l-0.4,0.1v-0.1l-0.2-0.1l-0.5,0.2h-0.4l-0.6,0.1l-0.7-0.4v-0.2l-0.3-0.2h-0.1l-0.2-0.3 l0.1-0.2l0.1-0.5l-0.1-0.2l0.9-0.9l0.5-0.2v-0.2l0.3-0.5h0.3l0.4-0.2l1-0.2l0.1,0.1l-0.1,0.4h0.4l0.7,0.3l0.1-0.3l0.8,0.1l0.4-0.1 l-0.1-0.7l-0.2,0.1l-0.2-0.1v0.2l-0.3-0.2l-0.1-0.3h-0.2l-0.2,0.1l0.1,0.2l0.2,0.1l-0.1,0.2h-0.2l-0.1-0.2l-0.2-0.2v-0.2l-0.4-0.2 l-0.3-0.1v-0.1l-0.1,0.1v0.1l0.3,0.3h0.2l0.1,0.1l0.2,0.1v0.1l-0.1-0.1h-0.1l0.1,0.1l-0.2,0.1v0.2l-0.3-0.2h0.3l0.1-0.1l-0.1-0.2 l-0.5-0.2l-0.3-0.3h-0.1l-0.1,0.2h-0.1l-0.1-0.1h-0.1v0.2l-0.2,0.1l-0.1,0.2v-0.1l-0.2,0.2h-0.2l-0.2,0.2h-0.2l-0.2,0.1v-0.2h-0.1 l-0.1-0.1l0.1-0.2v-0.2l-0.1-0.1h0.1l0.1-0.1h0.7l0.1-0.3l-0.2-0.2h-0.2v-0.2l0.3,0.2v0.1h0.1l0.3-0.4l0.2-0.4l0.3-0.2l-0.2-0.2 l0.2-0.1v0.1v0.2h0.2h0.3l0.2-0.1h0.2l0.1-0.4l-0.1-0.5h0.1l0.1,0.3l0,0l-0.2-0.2l0.2-0.2h0.1h0.1h-0.2l-0.2,0.2l-0.4-0.4l0.1-0.3 l-0.3-0.1v0.1l0.1,0.2l-0.2,0.2l0.3,0.2l0.3,0.1v0.2h-0.2v0.2l-0.1,0.1l-0.2,0.1l-0.1-0.2l-0.3-0.3l-0.2,0.2l-0.2-0.1l-0.2-0.5 l0.2-0.2l0.1-0.2l0.1-0.5l0.3-0.2l0.5,0.2l0.4,0.1l0.2,0.2l-0.1,0.1l-0.3-0.1l0.2,0.2l0.3,0.4l-0.1,0.1h0.2l-0.1-0.5l0.1-0.2 l-0.1-0.4l0.1-0.1l-0.1-0.2l0.1-0.1v-0.1c1.9,1.2,3.2,3.1,3.5,5.4h-0.2l-0.1-0.2l-0.1,0.1l-0.3-0.4l-0.1,0.1l0.4,0.7l0.4-0.1v-0.2 v0.2L-170.8,1674.2L-170.8,1674.2z" class="st37"/><path id="Fill-1-Copy-5_1_" d="M-146.1,1613c-6.7,0-13.3-2.5-18.4-7.6 c-10.1-10.1-10.1-26.6,0-36.8c10.1-10.1,26.6-10.1,36.8,0c0.8,0.8,0.8,2,0,2.8c-0.8,0.8-2,0.8-2.8,0c-8.6-8.6-22.5-8.6-31.1,0 s-8.6,22.5,0,31.1s22.5,8.6,31.1,0c0.8-0.8,2-0.8,2.8,0c0.8,0.8,0.8,2,0,2.8C-132.8,1610.5-139.4,1613-146.1,1613 M-146.1,1543 c24.3,0,44,19.7,44,44s-19.7,44-44,44s-44-19.7-44-44S-170.4,1543-146.1,1543 M-146.1,1539c-26.5,0-48,21.5-48,48s21.5,48,48,48 s48-21.5,48-48S-119.6,1539-146.1,1539" class="st37"/><path id="Imported-Layers-4_5_" d="M-106.1,1495.2c-0.2-0.3-0.6-0.3-0.8,0 c-0.2,0.3-0.2,0.8,0,1.1l3.5,4.7l-3.5,4.7c-0.2,0.3-0.2,0.8,0,1.1c0.1,0.1,0.2,0.2,0.4,0.2c0.1,0,0.3-0.1,0.4-0.2l4-5.5v-0.6 L-106.1,1495.2z" class="st38"/><path id="Imported-Layers-4-Copy_1_" d="M-183.1,1506.8c0.2,0.3,0.6,0.3,0.8,0 c0.2-0.3,0.2-0.8,0-1.1l-3.5-4.7l3.5-4.7c0.2-0.3,0.2-0.8,0-1.1c-0.1-0.1-0.2-0.2-0.4-0.2c-0.1,0-0.3,0.1-0.4,0.2l-4,5.5v0.6 L-183.1,1506.8z" class="st38"/><path id="Fill-7-Copy-3_1_" d="M-151.1,2069h-2v2h2v2h2v-2h2v-2h-2v-2h-2V2069z M-150.4,2078.9c-0.4-0.4-4.1-2.1-4.7-2.4c0-0.1-0.1-0.7-0.3-0.8c-0.2-0.1-0.8-0.4-0.8-0.4s-0.1-0.2-0.1-0.3c0-0.2,0.1-0.3,0.1-0.3 c0.1-0.2,0.4-0.5,0.5-0.8s0.2-1.1,0.2-1.1c0-0.2,0.2-0.2,0.4-0.3c0.3-0.1,0.5-1.8,0.5-1.8c0-0.5-0.2-0.3-0.2-0.7v-1.4 c0-1.7-1.5-2.7-3.2-2.7h-0.1c-1.7,0-3.1,0.9-3.1,2.7v1.4c0,0.4-0.2,0.2-0.2,0.7c0,0,0.2,1.6,0.5,1.8c0.1,0.1,0.4,0.2,0.4,0.3 c0,0,0.1,0.8,0.2,1.1s0.4,0.7,0.5,0.8c0,0,0.1,0.1,0.1,0.3c0,0.1-0.1,0.3-0.1,0.3s-0.6,0.3-0.8,0.4c-0.2,0.1-0.3,0.6-0.3,0.8 c-0.7,0.2-4.3,1.9-4.8,2.4c-0.3,0.3-0.3,2.1-0.3,2.1v0.2c0,0.4,0.3,0.8,0.7,0.8h14.5c0.4,0,0.8-0.4,0.8-0.8v-0.2 C-150.1,2081-150.1,2079.2-150.4,2078.9z" class="st39"/><path id="Fill-7-Copy-4_1_" d="M-151.1,2028h-2v2h2v2h2v-2h2v-2h-2v-2h-2V2028z M-150.4,2037.9c-0.4-0.4-4.1-2.1-4.7-2.4c0-0.1-0.1-0.7-0.3-0.8c-0.2-0.1-0.8-0.4-0.8-0.4s-0.1-0.2-0.1-0.3c0-0.2,0.1-0.3,0.1-0.3 c0.1-0.2,0.4-0.5,0.5-0.8s0.2-1.1,0.2-1.1c0-0.2,0.2-0.2,0.4-0.3c0.3-0.1,0.5-1.8,0.5-1.8c0-0.5-0.2-0.3-0.2-0.7v-1.4 c0-1.7-1.5-2.7-3.2-2.7h-0.1c-1.7,0-3.1,0.9-3.1,2.7v1.4c0,0.4-0.2,0.2-0.2,0.7c0,0,0.2,1.6,0.5,1.8c0.1,0.1,0.4,0.2,0.4,0.3 c0,0,0.1,0.8,0.2,1.1c0.1,0.3,0.4,0.7,0.5,0.8c0,0,0.1,0.1,0.1,0.3c0,0.1-0.1,0.3-0.1,0.3s-0.6,0.3-0.8,0.4 c-0.2,0.1-0.3,0.6-0.3,0.8c-0.7,0.2-4.3,1.9-4.8,2.4c-0.3,0.3-0.3,2.1-0.3,2.1v0.2c0,0.4,0.3,0.8,0.7,0.8h14.5 c0.4,0,0.8-0.4,0.8-0.8v-0.2C-150.1,2040-150.1,2038.2-150.4,2037.9z" class="st40"/><g id="Rectangle-120-Copy-2_1_"><polygon points="-152.1 2248 -152.1 2241 -154.1 2241 -154.1 2248 -161.1 2248 -161.1 2250 -154.1 2250 -154.1 2257 -152.1 2257 -152.1 2250 -145.1 2250 -145.1 2248" class="st4"/></g><path id="Imported-Layers-Copy-7_3_" d="M-152.4,2144.7c0.4-0.4,0.4-1,0-1.4s-1-0.4-1.4,0 l-3.3,3.3l-3.3-3.3c-0.4-0.4-1-0.4-1.4,0s-0.4,1,0,1.4l3.3,3.3l-3.3,3.3c-0.4,0.4-0.4,1,0,1.4c0.2,0.2,0.4,0.3,0.7,0.3 c0.3,0,0.5-0.1,0.7-0.3l3.3-3.3l3.3,3.3c0.2,0.2,0.4,0.3,0.7,0.3c0.3,0,0.5-0.1,0.7-0.3c0.4-0.4,0.4-1,0-1.4l-3.3-3.3 L-152.4,2144.7z" class="st41"/><g id="folder-copy_1_" transform="translate(23.000000, 363.000000)"><g id="Imported-Layers_1_"><path id="Fill-1_9_" d="M-136.1,1544.8c0,1.8-1.4,3.2-3.2,3.2h-51.6c-1.8,0-3.2-1.5-3.2-3.2V1506h58L-136.1,1544.8" class="st42"/><path id="Fill-2_12_" d="M-190.9,1496h19.6c0.8,0,1.7,0.3,2.3,0.9l3,3.4c0.6,0.6,2,1.7,3.9,1.7h23c1.8,0,3,1.3,3,3 v1h-58v-6.8C-194.1,1497.4-192.7,1496-190.9,1496" class="st43"/></g><g id="Fill-4-Copy-_x2B_-Fill-4-Copy-2-_x2B_-Rectangle-601-Copy_1_" transform="translate(9.000000, 23.000000)"><path id="Fill-4-Copy_1_" d="M-157.7,1505h-13.4v-2h13.4l-5.4-5.8l1.5-1.2l7.5,8l-7.5,8l-1.5-1.2L-157.7,1505z" class="st4"/><path id="Fill-4-Copy-2_1_" d="M-190.5,1503h13.4v2h-13.4l5.4,5.8l-1.5,1.2l-7.5-8l7.5-8l1.5,1.2L-190.5,1503z" class="st4"/><rect id="Rectangle-601-Copy_1_" width="2" height="2" x="-175.1" y="1503" class="st4"/></g></g><path id="Rectangle-11_1_" d="M-128.6,1961.4l4.3,4.4l10.7-10.9l1.5,1.6l-12.2,12.4 l-5.8-6L-128.6,1961.4z" class="st38"/><path id="Imported-Layers-Copy-14_1_" d="M-143.5,2412.4c0.5-0.5,0.5-1.4,0-2 s-1.4-0.5-2,0l-4.6,4.6l-4.6-4.6c-0.5-0.5-1.4-0.5-2,0c-0.5,0.5-0.5,1.4,0,2l4.6,4.6l-4.6,4.6c-0.5,0.5-0.5,1.4,0,2 c0.3,0.3,0.6,0.4,1,0.4s0.7-0.1,1-0.4l4.6-4.6l4.6,4.6c0.3,0.3,0.6,0.4,1,0.4s0.7-0.1,1-0.4c0.5-0.5,0.5-1.4,0-2l-4.6-4.6 L-143.5,2412.4z" class="st17"/><g id="Page-1_13_"><path id="Fill-1-Copy-4_1_" d="M-209,2605.9c2.1,2.1,6.7,2.3,8.8,0.2l4.3-4.3 c2.4-2.4,2.3-6.3-0.2-8.8s-6.4-2.6-8.8-0.2l-3.4,3.4c1.3-0.1,2.6,0.2,3.8,0.7l1.9-1.9c1.2-1.2,3.2-1.2,4.4,0.1 c1.2,1.2,1.3,3.2,0.1,4.4l-4.3,4.3c-1.2,1.2-3.6,0.7-5.1,0.7L-209,2605.9z M-203.2,2600.1c-2.2-2.2-6.7-2.3-8.8-0.2l-4.3,4.3 c-2.4,2.4-2.3,6.3,0.2,8.8s6.4,2.6,8.8,0.2l3.4-3.4c-1.3,0.1-2.6-0.2-3.8-0.7l-1.9,1.9c-1.2,1.2-3.2,1.2-4.4-0.1 c-1.2-1.3-1.3-3.2-0.1-4.4l4.3-4.3c0.9-0.9,2.2-0.7,5.1-0.7l0,0L-203.2,2600.1z" class="st4"/></g><g id="Page-1_12_"><path id="_x3F_-copy_1_" d="M-146.1,2514.1h1.8c-0.2-2.2,2.5-3,2.5-5.2 c0-1.9-1.3-2.9-3.2-2.9c-1.3,0-2.3,0.6-3,1.5l1.1,1c0.5-0.6,1.1-0.9,1.8-0.9c0.9,0,1.4,0.6,1.4,1.4 C-143.8,2510.6-146.4,2511.6-146.1,2514.1L-146.1,2514.1z M-146.5,2516.7c0,0.8,0.6,1.4,1.3,1.4c0.7,0,1.3-0.6,1.3-1.4 s-0.6-1.4-1.3-1.4C-145.9,2515.3-146.5,2515.9-146.5,2516.7L-146.5,2516.7z" class="st4"/></g><g id="Page-1_11_"><path id="Rectangle-29-Copy-2_1_" d="M-150.2,2339.8c-1.6-1.6-4.6-2.8-6.8-2.8l0,0h24 l0,0c-2.2,0-5.3,1.3-6.8,2.8l-3.8,3.8c-0.8,0.8-2,0.8-2.8,0L-150.2,2339.8z" class="st23"/></g><path id="Imported-Layers-Copy-7_2_" d="M-152.4,2194.7c0.4-0.4,0.4-1,0-1.4s-1-0.4-1.4,0 l-3.3,3.3l-3.3-3.3c-0.4-0.4-1-0.4-1.4,0s-0.4,1,0,1.4l3.3,3.3l-3.3,3.3c-0.4,0.4-0.4,1,0,1.4c0.2,0.2,0.4,0.3,0.7,0.3 c0.3,0,0.5-0.1,0.7-0.3l3.3-3.3l3.3,3.3c0.2,0.2,0.4,0.3,0.7,0.3c0.3,0,0.5-0.1,0.7-0.3c0.4-0.4,0.4-1,0-1.4l-3.3-3.3 L-152.4,2194.7z" class="st4"/><path d="M-78.9,2832.2v-6.2h-1v5.8l-2.6-2.6l-0.7,0.7l2.8,2.8c0,0.1,0,0.2,0,0.2c0,0.6,0.4,1,1,1s1-0.4,1-1 C-78.4,2832.6-78.6,2832.3-78.9,2832.2z" class="st44"/><path d="M-72.3,2828.3l0.7-0.7c0.4-0.4,0.4-1,0-1.4l-1.4-1.4c-0.4-0.4-1-0.4-1.4,0l-0.7,0.7l0.7,0.7l-0.1,0.1 c-1.1-0.9-2.4-1.5-3.8-1.7v-0.6h2v-1c0-0.6-0.4-1-1-1h-1h-2h-1c-0.6,0-1,0.4-1,1v1h2v0.6c-3.7,0.5-6.5,3.6-6.5,7.4 c0,4.1,3.4,7.5,7.5,7.5s7.5-3.4,7.5-7.5c0-1.6-0.5-3-1.3-4.3l0.2-0.2L-72.3,2828.3z M-79.4,2838.5c-3.6,0-6.5-2.9-6.5-6.5 s2.9-6.5,6.5-6.5s6.5,2.9,6.5,6.5S-75.8,2838.5-79.4,2838.5z" class="st44"/><path d="M-78.9,2795.2v-6.2h-1v5.8l-2.6-2.6l-0.7,0.7l2.8,2.8c0,0.1,0,0.2,0,0.2c0,0.6,0.4,1,1,1s1-0.4,1-1 C-78.4,2795.6-78.6,2795.3-78.9,2795.2z" class="st45"/><path d="M-72.3,2791.3l0.7-0.7c0.4-0.4,0.4-1,0-1.4l-1.4-1.4c-0.4-0.4-1-0.4-1.4,0l-0.7,0.7l0.7,0.7l-0.1,0.1 c-1.1-0.9-2.4-1.5-3.8-1.7v-0.6h2v-1c0-0.6-0.4-1-1-1h-1h-2h-1c-0.6,0-1,0.4-1,1v1h2v0.6c-3.7,0.5-6.5,3.6-6.5,7.4 c0,4.1,3.4,7.5,7.5,7.5s7.5-3.4,7.5-7.5c0-1.6-0.5-3-1.3-4.3l0.2-0.2L-72.3,2791.3z M-79.4,2801.5c-3.6,0-6.5-2.9-6.5-6.5 s2.9-6.5,6.5-6.5s6.5,2.9,6.5,6.5S-75.8,2801.5-79.4,2801.5z" class="st45"/><g id="Page-1_10_"><polygon id="check_3_" points="-89.2 -1918.3 -85.1 -1915.6 -77 -1922.4 -75.6 -1921 -85.3 -1911.6 -90.6 -1917" class="st46"/></g><path d="M-210.1,1424h-10c-1.7,0-3,1.3-3,3v10c0,1.7,1.3,3,3,3h10c1.7,0,3-1.3,3-3v-10 C-207.1,1425.3-208.4,1424-210.1,1424z M-216.2,1435.9l-3.9-3.9l1-1l3,2l6-5l1,1L-216.2,1435.9z" class="st47"/><path d="M-210.1,1372h-10c-1.7,0-3,1.3-3,3v10c0,1.7,1.3,3,3,3h10c1.7,0,3-1.3,3-3v-10 C-207.1,1373.3-208.4,1372-210.1,1372z" class="st48"/><g id="set-expiry_8_" transform="translate(8.000000, 5515.000000)"><g id="_x30_1-get-link---switch-off_1_"><g id="key-only_2_"><path d="M-211.4-2680.5c-1.9,0-3.6-1-4.4-2.7h-1.2l-1.3-1.1l-1.5,1.2l-1.4-0.9l-0.6,0.7h-1.2l-2.6-3.2l1.1-1.4h8.6 c0.9-1.7,2.6-2.7,4.4-2.7c2.8,0,5,2.2,5,5S-208.6-2680.5-211.4-2680.5z M-216.6-2684.2h1.5l0.1,0.3c0.6,1.5,2.1,2.4,3.6,2.4 c2.2,0,4-1.8,4-4s-1.8-4-4-4c-1.6,0-3,0.9-3.6,2.4l-0.1,0.3h-8.8l-0.3,0.4l1.8,2.2h0.2l0.8-1.1l1.6,1l1.5-1.2L-216.6-2684.2z M-210.1-2683.7c-1,0-1.8-0.8-1.8-1.8s0.8-1.8,1.8-1.8s1.8,0.8,1.8,1.8S-209.1-2683.7-210.1-2683.7z M-210.1-2686.3 c-0.4,0-0.8,0.4-0.8,0.8c0,0.4,0.4,0.8,0.8,0.8c0.4,0,0.8-0.4,0.8-0.8S-209.7-2686.3-210.1-2686.3z" class="st44"/></g></g></g><path d="M-203.4,2875.5c-1.9,0-3.6-1-4.4-2.7h-1.2l-1.3-1.1l-1.5,1.2l-1.4-0.9l-0.6,0.7h-1.2l-2.6-3.2l1.1-1.4h8.6 c0.9-1.7,2.6-2.7,4.4-2.7c2.8,0,5,2.2,5,5S-200.6,2875.5-203.4,2875.5z M-208.6,2871.8h1.5l0.1,0.3c0.6,1.5,2.1,2.4,3.6,2.4 c2.2,0,4-1.8,4-4s-1.8-4-4-4c-1.6,0-3,0.9-3.6,2.4l-0.1,0.3h-8.8l-0.3,0.4l1.8,2.2h0.2l0.8-1.1l1.6,1l1.5-1.2L-208.6,2871.8z M-202.1,2872.3c-1,0-1.8-0.8-1.8-1.8s0.8-1.8,1.8-1.8s1.8,0.8,1.8,1.8S-201.1,2872.3-202.1,2872.3z M-202.1,2869.7 c-0.4,0-0.8,0.4-0.8,0.8s0.4,0.8,0.8,0.8c0.4,0,0.8-0.4,0.8-0.8S-201.7,2869.7-202.1,2869.7z" class="st39"/><g id="set-expiry_3_" class="st49" transform="translate(143.000000, 5435.000000)"><g id="_x30_3-Get-link-dialog---date-component_6_"><g id="arrow_right_4_"><path id="Imported-Layers-4_2_" d="M-223.9-2688.8c-0.2-0.3-0.6-0.3-0.8,0c-0.2,0.3-0.2,0.8,0,1.1l3.5,4.7 l-3.5,4.7c-0.2,0.3-0.2,0.8,0,1.1c0.1,0.1,0.2,0.2,0.4,0.2c0.1,0,0.3-0.1,0.4-0.2l4-5.5v-0.6L-223.9-2688.8L-223.9-2688.8z" class="st38"/></g></g></g><g id="set-expiry_2_" class="st49" transform="translate(143.000000, 5396.000000)"><g id="_x30_3-Get-link-dialog---date-component_2_"><g id="arrow_right_1_"><path id="Imported-Layers-4_1_" d="M-224.6-2683.5v0.6l4,5.5c0.1,0.1,0.2,0.2,0.4,0.2c0.1,0,0.3-0.1,0.4-0.2 c0.2-0.3,0.2-0.8,0-1.1l-3.5-4.7l3.5-4.7c0.2-0.3,0.2-0.8,0-1.1c-0.2-0.3-0.6-0.3-0.8,0L-224.6-2683.5L-224.6-2683.5z" class="st38"/></g></g></g><g id="set-expiry_1_" class="st3" transform="translate(142.000000, 5355.000000)"><g id="_x30_3-Get-link-dialog---date-component_1_"><g id="close-ico_2_"><path id="Imported-Layers-Copy_2_" d="M-215.2-2687.5c0.4-0.4,0.4-1,0-1.4s-1-0.4-1.4,0l-3.3,3.3l-3.3-3.3 c-0.4-0.4-1-0.4-1.4,0s-0.4,1,0,1.4l3.3,3.3l-3.3,3.3c-0.4,0.4-0.4,1,0,1.4c0.2,0.2,0.4,0.3,0.7,0.3c0.3,0,0.5-0.1,0.7-0.3 l3.3-3.3l3.3,3.3c0.2,0.2,0.4,0.3,0.7,0.3c0.3,0,0.5-0.1,0.7-0.3c0.4-0.4,0.4-1,0-1.4l-3.3-3.3L-215.2-2687.5L-215.2-2687.5z" class="st41"/></g></g></g><g><path d="M-205.9,2682.3h-8.4c-2.5-0.2-4.3-2.1-4.3-4.4v-5.8c0-2.4,1.9-4.2,4.3-4.2h8.4c2.4,0,4.3,1.9,4.3,4.3v5.8 C-201.6,2680.4-203.5,2682.3-205.9,2682.3z M-214.2,2668.9c-1.9,0-3.3,1.4-3.3,3.2v5.8c0,1.8,1.4,3.2,3.3,3.4h8.4 c1.8,0,3.3-1.5,3.3-3.3v-5.8c0-1.8-1.5-3.3-3.3-3.3L-214.2,2668.9L-214.2,2668.9z" class="st44"/><path d="M-209.9,2678.9h-0.4c-0.5,0-0.9-0.2-1.2-0.5c-0.3-0.3-0.4-0.8-0.3-1.3l0.3-1.5c0,0.1,0,0-0.1,0 c0,0,0,0,0-0.1c-0.6-0.5-0.8-1.3-0.6-2.2c0.1-0.7,0.7-1.3,1.5-1.5c0.7-0.2,1.3,0,1.9,0.4c0.5,0.4,0.9,1.1,0.9,1.7 c0,0.6-0.3,1.2-0.8,1.6l0.3,1.6c0.1,0.5,0,1-0.3,1.3S-209.4,2678.9-209.9,2678.9z M-210.1,2672.7c-0.1,0-0.2,0-0.3,0 c-0.3,0.1-0.8,0.3-0.8,0.8c-0.2,0.5,0,0.9,0.3,1.2l0.1,0.2l0.1,0.1c0.1,0.1,0.2,0.3,0.2,0.6l-0.3,1.6c0,0.2,0,0.3,0.1,0.5 c0.1,0.1,0.3,0.1,0.4,0.1h0.4c0.1,0,0.3,0,0.4-0.1s0.1-0.3,0.1-0.5l-0.3-1.6c-0.1-0.2-0.1-0.4,0-0.6c0.1-0.1,0.1-0.2,0.2-0.3h0.1 c0.3-0.3,0.5-0.5,0.5-0.9c0-0.3-0.2-0.7-0.5-0.9C-209.5,2672.9-209.7,2672.7-210.1,2672.7z" class="st44"/><path d="M-204.6,2668.8h-1v-1.8c0-0.2-0.1-4.5-4.5-4.5s-4.5,4.9-4.5,5.1v0.9h-1v-0.9c0-2.1,1.1-6.1,5.5-6.1 c5.4,0,5.5,5.4,5.5,5.5V2668.8z" class="st44"/></g><g><path d="M-205.9,2762.2h-8.4c-2.4,0-4.3-1.9-4.3-4.3v-5.8c0-2.4,1.9-4.3,4.3-4.3h8.4c2.4,0,4.3,1.9,4.3,4.3v5.8 C-201.6,2760.3-203.5,2762.2-205.9,2762.2z M-214.2,2748.8c-1.8,0-3.3,1.5-3.3,3.3v5.8c0,1.8,1.5,3.3,3.3,3.3h8.4 c1.8,0,3.3-1.5,3.3-3.3v-5.8c0-1.8-1.5-3.3-3.3-3.3H-214.2z" class="st39"/><path d="M-209.9,2758.9h-0.3c-0.5,0-0.9-0.2-1.2-0.5c-0.3-0.3-0.4-0.8-0.3-1.3l0.3-1.5c0,0.1,0,0-0.1,0 c0,0,0,0,0-0.1c-0.6-0.5-0.8-1.3-0.6-2.2c0.1-0.7,0.7-1.3,1.5-1.5c0.7-0.2,1.3,0,1.9,0.4c0.5,0.4,0.9,1.1,0.9,1.7 c-0.1,0.7-0.4,1.2-0.9,1.6l0.3,1.6c0.1,0.5,0,1-0.3,1.3S-209.4,2758.9-209.9,2758.9z M-210,2752.7c-0.1,0-0.2,0-0.3,0 c-0.3,0.1-0.8,0.3-0.8,0.8c-0.2,0.5,0,0.9,0.3,1.2l0.1,0.2l0.1,0.1c0.1,0.1,0.2,0.3,0.2,0.6l-0.3,1.6c0,0.2,0,0.3,0.1,0.5 c0.1,0.1,0.3,0.1,0.4,0.1h0.3c0.1,0,0.3,0,0.4-0.1c0.1-0.1,0.1-0.3,0.1-0.5l-0.3-1.6c-0.1-0.2-0.1-0.4,0-0.6 c0.1-0.1,0.1-0.2,0.2-0.3h0.1c0.4-0.3,0.5-0.6,0.6-1c0-0.3-0.2-0.6-0.5-0.8C-209.4,2752.9-209.6,2752.7-210,2752.7z" class="st39"/><path d="M-204.6,2748.8h-1v-1.8c0-0.2-0.1-4.5-4.5-4.5s-4.5,4.9-4.5,5.1v0.9h-1v-0.9c0-2.1,1.1-6.1,5.5-6.1 c5.4,0,5.5,5.4,5.5,5.5V2748.8z" class="st39"/></g><g><path d="M-201.8,2789.2c-0.3,0-0.7,0-1,0.1l0,0c-0.5-0.6-1.2-1.1-2-1.3v-1c0-0.1-0.1-5.5-5.5-5.5 c-3.3,0-4.6,2.1-5.2,4l1,0.3c0.7-2.2,2.1-3.2,4.2-3.2c4.4,0,4.5,4.3,4.5,4.5v0.8c-0.1,0-0.2,0-0.3,0h-8.4c-2.4,0-4.3,1.9-4.3,4.3 v5.8c0,2.4,1.9,4.3,4.3,4.3h8.4c1.8,0,3.4-1.2,4-3c0.1,0,0.2,0,0.2,0c2.8,0,5-2.2,5-5S-199.1,2789.2-201.8,2789.2z M-206.1,2801.2 h-8.4c-1.8,0-3.3-1.5-3.3-3.3v-5.8c0-1.8,1.5-3.3,3.3-3.3h8.4c0.8,0,1.7,0.3,2.3,0.9c-1,0.5-1.9,1.2-2.4,2.3h-3 c-0.5-0.2-1-0.3-1.5-0.1c-0.9,0.3-1.4,0.9-1.5,1.5c-0.2,0.8,0,1.6,0.6,2.2c0,0,0,0,0,0.1c0,0,0,0.1,0.1,0l-0.3,1.5 c-0.1,0.5,0,0.9,0.3,1.3c0.3,0.3,0.7,0.5,1.2,0.5h0.3c0.5,0,0.9-0.2,1.2-0.5c0.3-0.3,0.4-0.8,0.3-1.3l-0.3-1.6h0.2l1.3,1.1h1.2 c0.7,1.3,1.8,2.2,3.2,2.5C-203.6,2800.3-204.8,2801.2-206.1,2801.2z M-201.8,2798.2c-1.6,0-3-0.9-3.6-2.4l-0.1-0.3h-1.5l-1.7-1.3 h-0.8l-0.3,0.9c0,0.1,0,0.1-0.1,0.2v0.1l0,0c0,0.1,0,0.3,0.1,0.4l0.3,1.6c0,0.2,0,0.4-0.1,0.5s-0.3,0.1-0.4,0.1h-0.3 c-0.1,0-0.3,0-0.4-0.1s-0.1-0.3-0.1-0.5l0.3-1.6c0-0.3-0.1-0.5-0.2-0.6l-0.1-0.1l-0.1-0.2c-0.4-0.3-0.5-0.7-0.3-1.2 c0.1-0.5,0.6-0.7,0.8-0.8c0.6-0.1,1.4,0.1,1.4,0.1h0.1l0,0h3.3l0.1-0.3c0.6-1.5,2.1-2.4,3.6-2.4c2.2,0,4,1.8,4,4 S-199.6,2798.2-201.8,2798.2z" class="st39"/><path d="M-200.5,2792.4c-1,0-1.8,0.8-1.8,1.8s0.8,1.8,1.8,1.8s1.8-0.8,1.8-1.8 C-198.7,2793.3-199.5,2792.4-200.5,2792.4z M-200.5,2795c-0.4,0-0.8-0.4-0.8-0.8c0-0.4,0.4-0.8,0.8-0.8c0.4,0,0.8,0.4,0.8,0.8 C-199.7,2794.7-200.1,2795-200.5,2795z" class="st39"/></g><g><path d="M-201.8,2709.2c-0.3,0-0.7,0-1,0.1l0,0c-0.5-0.6-1.2-1.1-2-1.3v-1c0-0.1-0.1-5.5-5.5-5.5 c-3.3,0-4.6,2.1-5.2,4l1,0.3c0.7-2.2,2.1-3.2,4.2-3.2c4.4,0,4.5,4.3,4.5,4.5v0.8c-0.1,0-0.2,0-0.3,0h-8.4c-2.4,0-4.3,1.9-4.3,4.3 v5.8c0,2.4,1.9,4.3,4.3,4.3h8.4c1.8,0,3.4-1.2,4-3c0.1,0,0.2,0,0.2,0c2.8,0,5-2.2,5-5S-199.1,2709.2-201.8,2709.2z M-206.1,2721.2 h-8.4c-1.8,0-3.3-1.5-3.3-3.3v-5.8c0-1.8,1.5-3.3,3.3-3.3h8.4c0.8,0,1.7,0.3,2.3,0.9c-1,0.5-1.9,1.2-2.4,2.3h-3 c-0.5-0.2-1-0.3-1.5-0.1c-0.9,0.3-1.4,0.9-1.5,1.5c-0.2,0.8,0,1.6,0.6,2.2c0,0,0,0,0,0.1c0,0,0,0.1,0.1,0l-0.3,1.5 c-0.1,0.5,0,0.9,0.3,1.3c0.3,0.3,0.7,0.5,1.2,0.5h0.3c0.5,0,0.9-0.2,1.2-0.5c0.3-0.3,0.4-0.8,0.3-1.3l-0.3-1.6h0.2l1.3,1.1h1.2 c0.7,1.3,1.8,2.2,3.2,2.5C-203.6,2720.3-204.8,2721.2-206.1,2721.2z M-201.8,2718.2c-1.6,0-3-0.9-3.6-2.4l-0.1-0.3h-1.5l-1.7-1.3 h-0.8l-0.3,0.9c0,0.1,0,0.1-0.1,0.2v0.1l0,0c0,0.1,0,0.3,0.1,0.4l0.3,1.6c0,0.2,0,0.4-0.1,0.5s-0.3,0.1-0.4,0.1h-0.3 c-0.1,0-0.3,0-0.4-0.1s-0.1-0.3-0.1-0.5l0.3-1.6c0-0.3-0.1-0.5-0.2-0.6l-0.1-0.1l-0.1-0.2c-0.4-0.3-0.5-0.7-0.3-1.2 c0.1-0.5,0.6-0.7,0.8-0.8c0.6-0.1,1.4,0.1,1.4,0.1h0.1l0,0h3.3l0.1-0.3c0.6-1.5,2.1-2.4,3.6-2.4c2.2,0,4,1.8,4,4 S-199.6,2718.2-201.8,2718.2z" class="st44"/><path d="M-200.5,2712.4c-1,0-1.8,0.8-1.8,1.8s0.8,1.8,1.8,1.8s1.8-0.8,1.8-1.8 C-198.7,2713.3-199.5,2712.4-200.5,2712.4z M-200.5,2715c-0.4,0-0.8-0.4-0.8-0.8c0-0.4,0.4-0.8,0.8-0.8c0.4,0,0.8,0.4,0.8,0.8 C-199.7,2714.7-200.1,2715-200.5,2715z" class="st44"/></g><g id="Page-1_9_"><polygon id="check_2_" points="-87.6 -506 -84.6 -504 -78.6 -509 -77.6 -508 -84.7 -501.1 -88.6 -505" class="st50"/></g><g id="Page-1_8_"><path id="Fill-1_8_" d="M-145.1,2991.4c-2.2,0-4-1.8-4-4s1.8-4,4-4c2.2,0,4,1.8,4,4S-142.9,2991.4-145.1,2991.4 M-145.1,2947.4c-22.1,0-40,17.9-40,40s17.9,40,40,40s40-17.9,40-40S-123,2947.4-145.1,2947.4 M-145.1,3031.4 c-24.3,0-44-19.7-44-44s19.7-44,44-44s44,19.7,44,44S-120.8,3031.4-145.1,3031.4 M-121.5,3012.6l-16.5-21.7 c0.5-1.1,0.8-2.2,0.8-3.5c0-4.4-3.6-8-8-8s-8,3.6-8,8s3.6,8,8,8c1,0,2-0.2,2.9-0.6l19.7,18.8c0.3,0.3,0.7,0.3,1,0 C-121.3,3013.4-121.2,3012.9-121.5,3012.6" class="st38"/><path id="Fill-5_1_" d="M-123.3,2963.8l3-2.9c-6.1-5.7-14.9-9.2-22.9-9.5v4.1 C-135.1,2955.8-128.6,2958.9-123.3,2963.8" class="st51"/><path id="Fill-7_1_" d="M-147.1,2955.5v-4.1c-8,0.3-16.6,3.9-22.7,9.5l2.8,2.9 C-161.7,2958.9-155.1,2955.8-147.1,2955.5" class="st52"/><path id="Fill-11_1_" d="M-168.7,2965.6l-2.9-3c-5.6,6.1-9.2,14.9-9.5,22.9h4.1 C-176.7,2977.4-173.6,2970.9-168.7,2965.6" class="st53"/><path id="Fill-13_1_" d="M-121.5,3009.2l2.9,3c5.6-6.1,9.2-14.9,9.5-22.9h-4.1 C-113.5,2997.4-116.6,3003.9-121.5,3009.2" class="st54"/><path id="Fill-9_1_" d="M-113.2,2985.4h4.1c-0.3-8-3.9-16.6-9.5-22.7l-2.9,2.8 C-116.6,2970.8-113.5,2977.4-113.2,2985.4" class="st55"/><path id="Fill-15_1_" d="M-181.1,2989.4c0.3,8,3.9,16.6,9.5,22.7l2.9-2.7c-4.9-5.4-8-12-8.3-20H-181.1z" class="st56"/></g><path id="Shape_6_" d="M-121.3-2357.3c-0.3-0.3-3-1.6-3.6-1.8c0-0.1-0.1-0.5-0.2-0.6 s-0.6-0.3-0.6-0.3s-0.1-0.1-0.1-0.2c0-0.1,0.1-0.2,0.1-0.2c0.1-0.1,0.3-0.4,0.4-0.6s0.1-0.8,0.1-0.8c0-0.1,0.2-0.2,0.3-0.2 c0.2-0.1,0.4-1.3,0.4-1.3c0-0.4-0.2-0.2-0.2-0.5v-1.1c0-1.3-1-2.1-2.3-2.1h-0.1c-1.3,0-2.4,0.8-2.4,2.1v1.1c0,0.3-0.2,0.1-0.2,0.5 c0,0,0.2,1.2,0.4,1.3c0.1,0.1,0.3,0.1,0.3,0.2c0,0,0.1,0.6,0.1,0.8c0.1,0.2,0.3,0.5,0.4,0.6c0,0,0.1,0.1,0.1,0.2 c0,0.1-0.1,0.2-0.1,0.2s-0.5,0.2-0.6,0.3s-0.2,0.5-0.2,0.6c-0.5,0.2-3.3,1.4-3.6,1.8c-0.2,0.2-0.2,1.6-0.2,1.6v0.2 c0,0.3,0.3,0.6,0.6,0.6h10.9c0.3,0,0.6-0.3,0.6-0.6v-0.2C-121.1-2355.7-121.1-2357.1-121.3-2357.3L-121.3-2357.3L-121.3-2357.3z" class="st4"/><g id="Group_2_" transform="translate(90.000000, 136.000000)"><path id="Shape_3_" d="M-213.1-2679v1c0,1.1-0.9,2-2,2h-6c-1.1,0-2-0.9-2-2v-6c0-1.1,0.9-2,2-2h1v-2h-1 c-2.2,0-4,1.8-4,4v6c0,2.2,1.8,4,4,4h6c2.2,0,4-1.8,4-4v-1H-213.1L-213.1-2679z" class="st1"/><path id="Shape_1_" d="M-209.1-2690h-1l-5.5,4.5l-2.5-2.5v7h7l-2.5-2.5l4.5-5.5V-2690L-209.1-2690z" class="st1"/></g><g id="Imported-Layers-Copy-16_1_" transform="translate(29.000000, 980.000000)"><path d="M-157.1-3374.5c-4.4,0-7.4-3.1-9.4-5.2c-0.3-0.4-0.7-0.7-0.9-0.9l-0.4-0.4l0.4-0.4c0.3-0.3,0.6-0.6,0.9-0.9 c2-2.1,5-5.2,9.4-5.2s7.4,3.1,9.4,5.2c0.3,0.4,0.7,0.7,0.9,0.9l0.4,0.4l-0.4,0.4c-0.3,0.3-0.6,0.6-0.9,0.9 C-149.7-3377.6-152.7-3374.5-157.1-3374.5z M-166.4-3381c0.2,0.2,0.4,0.4,0.6,0.6c1.9,1.9,4.7,4.9,8.7,4.9s6.8-2.9,8.7-4.9 c0.2-0.2,0.4-0.4,0.6-0.6c-0.2-0.2-0.4-0.4-0.6-0.6c-1.9-1.9-4.7-4.9-8.7-4.9s-6.8,2.9-8.7,4.9 C-166-3381.4-166.2-3381.2-166.4-3381z M-157.1-3376.5c-2.5,0-4.5-2-4.5-4.5s2-4.5,4.5-4.5s4.5,2,4.5,4.5 S-154.6-3376.5-157.1-3376.5z M-157.1-3384.5c-1.9,0-3.5,1.6-3.5,3.5s1.6,3.5,3.5,3.5s3.5-1.6,3.5-3.5S-155.2-3384.5-157.1-3384.5 z"/><path id="Fill-2_11_" d="M-155.1-3381c0,1.1-0.9,2-2,2s-2-0.9-2-2s0.9-2,2-2 S-155.1-3382.1-155.1-3381" class="st41"/></g><g id="Path-_x2B_-Oval-12-Copy_1_"><path d="M-161.1-3358.3l-4.7-4.7l2.7-2.7l2,2l4-4l2.7,2.7L-161.1-3358.3z M-164.4-3363l3.3,3.3l5.3-5.3l-1.3-1.3l-4,4l-2-2 L-164.4-3363z" transform="translate(32.000000, 1042.000000)"/><path d="M-160.1-3354.5c-4.7,0-8.5-3.8-8.5-8.5s3.8-8.5,8.5-8.5c4.7,0,8.5,3.8,8.5,8.5S-155.4-3354.5-160.1-3354.5z M-160.1-3370.5c-4.1,0-7.5,3.4-7.5,7.5s3.4,7.5,7.5,7.5s7.5-3.4,7.5-7.5S-156-3370.5-160.1-3370.5z" transform="translate(32.000000, 1042.000000)"/></g><g id="Group-Copy_1_" transform="translate(30.000000, 1009.000000)"><path d="M-168-3283.1l2.5-6.3l9.6-9.6c0.5-0.5,1.2-0.8,1.9-0.7c0.7,0,1.2,0.3,1.7,0.8l0.2,0.2c0.5,0.5,0.8,1.2,0.7,1.9 c0,0.7-0.3,1.2-0.8,1.7l-9.7,9.7L-168-3283.1z M-164.7-3288.7l-1.5,3.8l3.8-1.5l9.5-9.5c0.3-0.3,0.4-0.6,0.5-1 c0-0.4-0.2-0.8-0.5-1.1l-0.2-0.2c-0.3-0.3-0.6-0.4-1-0.5c-0.4,0-0.8,0.2-1.1,0.5L-164.7-3288.7z"/><rect width="4.3" height="1" x="-157.6" y="-3296.2" transform="matrix(-0.7186 -0.6955 0.6955 -0.7186 2024.8318 -5771.9189)"/><rect width="4.3" height="1" x="-164.6" y="-3289.2" transform="matrix(-0.7186 -0.6955 0.6955 -0.7186 2007.9318 -5764.7578)"/><g id="Rectangle-68-Copy-_x2B_-Rectangle-68-Copy-2-_x2B_-Rectangle-68-Copy-3_3_" transform="translate(5.000000, 15.000000)"><rect id="Rectangle-68-Copy_3_" width="4" height="1" x="-163.1" y="-3300"/><rect id="Rectangle-68-Copy-2_3_" width="2" height="1" x="-157.1" y="-3300"/><rect id="Rectangle-68-Copy-3_3_" width="2" height="1" x="-167.1" y="-3300"/></g></g><g id="Imported-Layers-Copy-15_2_" transform="translate(33.000000, 813.000000)"><path d="M-161.1-3243.5c-4.4,0-7.4-3.1-9.4-5.2c-0.3-0.4-0.7-0.7-0.9-0.9l-0.4-0.4l0.4-0.4c0.3-0.3,0.6-0.6,0.9-0.9 c2-2.1,5-5.2,9.4-5.2s7.4,3.1,9.4,5.2c0.3,0.4,0.7,0.7,0.9,0.9l0.4,0.4l-0.4,0.4c-0.3,0.3-0.6,0.6-0.9,0.9 C-153.7-3246.6-156.7-3243.5-161.1-3243.5z M-170.4-3250c0.2,0.2,0.4,0.4,0.6,0.6c1.9,1.9,4.7,4.9,8.7,4.9s6.8-2.9,8.7-4.9 c0.2-0.2,0.4-0.4,0.6-0.6c-0.2-0.2-0.4-0.4-0.6-0.6c-1.9-1.9-4.7-4.9-8.7-4.9s-6.8,2.9-8.7,4.9 C-170-3250.4-170.2-3250.2-170.4-3250z M-161.1-3245.5c-2.5,0-4.5-2-4.5-4.5s2-4.5,4.5-4.5s4.5,2,4.5,4.5 S-158.6-3245.5-161.1-3245.5z M-161.1-3253.5c-1.9,0-3.5,1.6-3.5,3.5s1.6,3.5,3.5,3.5s3.5-1.6,3.5-3.5S-159.2-3253.5-161.1-3253.5 z" class="st4"/><path id="Fill-2_8_" d="M-159.1-3250c0,1.1-0.9,2-2,2s-2-0.9-2-2s0.9-2,2-2 S-159.1-3251.1-159.1-3250" class="st4"/></g><g id="Path-_x2B_-Oval-12_2_"><path d="M-164.1-3375.3l-4.7-4.7l2.7-2.7l2,2l4-4l2.7,2.7L-164.1-3375.3z M-167.4-3380l3.3,3.3l5.3-5.3l-1.3-1.3l-4,4 l-2-2L-167.4-3380z" class="st4" transform="translate(35.000000, 879.000000)"/><path d="M-163.1-3371.5c-4.7,0-8.5-3.8-8.5-8.5s3.8-8.5,8.5-8.5c4.7,0,8.5,3.8,8.5,8.5S-158.4-3371.5-163.1-3371.5z M-163.1-3387.5c-4.1,0-7.5,3.4-7.5,7.5s3.4,7.5,7.5,7.5s7.5-3.4,7.5-7.5S-159-3387.5-163.1-3387.5z" class="st4" transform="translate(35.000000, 879.000000)"/></g><g id="Group-Copy-5_2_" transform="translate(35.000000, 845.000000)"><path d="M-171-3307.1l2.5-6.3l9.6-9.6c0.5-0.5,1.2-0.8,1.9-0.7c0.7,0,1.2,0.3,1.7,0.8l0.2,0.2 c0.5,0.5,0.8,1.2,0.7,1.9c0,0.7-0.3,1.2-0.8,1.7l-9.7,9.7L-171-3307.1z M-167.7-3312.7l-1.5,3.8l3.8-1.5l9.5-9.5 c0.3-0.3,0.4-0.6,0.5-1c0-0.4-0.2-0.8-0.5-1.1l-0.2-0.2c-0.3-0.3-0.6-0.4-1-0.5c-0.4,0-0.8,0.2-1.1,0.5L-167.7-3312.7z" class="st4"/><rect width="4.3" height="1" x="-160.6" y="-3320.2" class="st4" transform="matrix(-0.7186 -0.6955 0.6955 -0.7186 2036.3699 -5815.2534)"/><rect width="4.3" height="1" x="-167.6" y="-3313.2" class="st4" transform="matrix(-0.7186 -0.6955 0.6955 -0.7186 2019.4701 -5808.0918)"/><g id="Rectangle-68-Copy-_x2B_-Rectangle-68-Copy-2-_x2B_-Rectangle-68-Copy-3_1_" transform="translate(5.000000, 15.000000)"><rect id="Rectangle-68-Copy_1_" width="4" height="1" x="-166.1" y="-3324" class="st4"/><rect id="Rectangle-68-Copy-2_1_" width="2" height="1" x="-160.1" y="-3324" class="st4"/><rect id="Rectangle-68-Copy-3_1_" width="2" height="1" x="-170.1" y="-3324" class="st4"/></g></g></g><g id="Group-4" transform="translate(118.000000, 61.000000)"><rect id="Rectangle-178-Copy-18" width="24" height="24" x="-217.3" y="3062.3" class="st4"/><path id="Page-1-Copy-4" d="M-209.3,3075.3h8v-2h-8V3075.3z M-213.4,3074.3c0-2.3,1.8-4.1,4.1-4.1h3v-1.9h-3 c-3.3,0-6,2.7-6,6s2.7,6,6,6h3v-1.9h-3C-211.6,3078.4-213.4,3076.6-213.4,3074.3L-213.4,3074.3z M-201.3,3068.3h-3v1.9h3 c2.3,0,4.1,1.8,4.1,4.1s-1.8,4.1-4.1,4.1h-3v1.9h3c3.3,0,6-2.7,6-6S-198,3068.3-201.3,3068.3L-201.3,3068.3z" class="st23"/></g><path id="Combined-Shape-Copy" d="M-131.7,3130.5c0.5,0.4,0.5,1.1,0.1,1.5l-3.1,3.3l3.1,3.2c0.4,0.4,0.4,1.2,0,1.6	c-0.2,0.1-0.4,0.2-0.6,0.2c-0.2,0-0.5-0.1-0.7-0.3l-4.4-4.7l4.4-4.7C-132.6,3130.3-132.1,3130.2-131.7,3130.5z M-121.7,3130.6	l4.4,4.7l-4.4,4.7c-0.2,0.2-0.4,0.3-0.7,0.3c-0.2,0-0.5-0.1-0.7-0.3c-0.4-0.4-0.4-1,0-1.4l3.2-3.3l-3.2-3.3c-0.4-0.4-0.4-1,0-1.4	C-122.7,3130.2-122.1,3130.2-121.7,3130.6z M-125.4,3130.4c0.5,0.2,0.8,0.8,0.6,1.3l-3,8c-0.2,0.4-0.5,0.6-0.9,0.6	c-0.1,0-0.2,0-0.4-0.1c-0.5-0.2-0.8-0.8-0.6-1.3l3-8C-126.5,3130.4-126,3130.2-125.4,3130.4z" class="st23"/><g><path id="Rectangle-5" d="M-210.3,3134.3h6c0.6,0,1,0.4,1,1l0,0c0,0.6-0.4,1-1,1h-6c-0.6,0-1-0.4-1-1l0,0 C-211.3,3134.7-210.9,3134.3-210.3,3134.3z" class="st23"/><path id="Oval" d="M-207.3,3142.3c3.9,0,7-3.1,7-7s-3.1-7-7-7s-7,3.1-7,7S-211.2,3142.3-207.3,3142.3z M-207.3,3144.3 c-5,0-9-4-9-9s4-9,9-9s9,4,9,9S-202.3,3144.3-207.3,3144.3z" class="st23"/></g><path id="Imported-Layers" d="M-159.6,3129c0.4-0.4,0.4-1,0-1.4s-1-0.4-1.4,0l-6.3,6.3l-6.3-6.3c-0.4-0.4-1-0.4-1.4,0	s-0.4,1,0,1.4l6.3,6.3l-6.3,6.3c-0.4,0.4-0.4,1,0,1.4c0.2,0.2,0.5,0.3,0.7,0.3s0.5-0.1,0.7-0.3l6.3-6.3l6.3,6.3	c0.2,0.2,0.5,0.3,0.7,0.3s0.5-0.1,0.7-0.3c0.4-0.4,0.4-1,0-1.4l-6.3-6.3L-159.6,3129z" class="st23"/><g id="Group-4_1_" transform="translate(0.000000, 1.002500)"><path id="Combined-Shape" d="M-203.1,3062.3c0.5,0,1,0.2,1.4,0.6l1.8,1.8c1.3,1.3,2.1,1.6,2.6,1.6h14c1.1,0,2,0.9,2,2 v25c0,0.6-0.4,1-1,1h-34c-0.6,0-1-0.4-1-1v-29c0-1.1,0.9-2,2-2L-203.1,3062.3z M-215.3,3068.3v24h32v-24H-215.3z M-202.3,3092.3v2 h6v-2H-202.3z" class="st37"/><path id="Fill-1-Copy-10" d="M-203.6,3082.1c0.2,0.2,0.5,0.2,0.8,0.1l2.6-1.7v13.8h2v-13.8l2.6,1.7 c0.2,0.2,0.6,0.1,0.8-0.1l0.3-0.3c0.2-0.2,0.2-0.5,0-0.7l-4.6-4.6l-4.6,4.6c-0.2,0.2-0.2,0.5,0,0.7L-203.6,3082.1z" class="st37"/></g><g><path id="Rectangle-5_1_" d="M-210.3,3174.3h6c0.6,0,1,0.4,1,1l0,0c0,0.6-0.4,1-1,1h-6c-0.6,0-1-0.4-1-1l0,0 C-211.3,3174.7-210.9,3174.3-210.3,3174.3z" class="st23"/><path id="Oval_1_" d="M-207.3,3182.3c3.9,0,7-3.1,7-7s-3.1-7-7-7s-7,3.1-7,7S-211.2,3182.3-207.3,3182.3z M-207.3,3184.3c-5,0-9-4-9-9s4-9,9-9s9,4,9,9S-202.3,3184.3-207.3,3184.3z" class="st23"/><path id="Rectangle-5_2_" d="M-206.3,3172.3v6c0,0.6-0.4,1-1,1l0,0c-0.6,0-1-0.4-1-1v-6c0-0.6,0.4-1,1-1l0,0 C-206.7,3171.3-206.3,3171.7-206.3,3172.3z" class="st23"/></g></svg>