<svg xmlns="http://www.w3.org/2000/svg" xmlns:xlink="http://www.w3.org/1999/xlink" id="Layer_1" width="40" height="500" x="0" y="0" enable-background="new -459 31 40 500" version="1.1" viewBox="-459 31 40 500" xml:space="preserve"><style type="text/css">.st0{fill:#fff}.st1{fill:#787878}.st2{fill:#d22327}.st3{fill:#6cb144}.st4{fill:#fcb316}.st5{fill:#25a4de}.st6{fill:#ff333a}</style><g><g><path d="M-449,194c0-5.5,4.5-10,10-10s10,4.5,10,10s-4.5,10-10,10S-449,199.5-449,194z" class="st0"/></g><circle cx="-439" cy="194" r="8" class="st1"/><rect width="10" height="2" x="-444" y="193" class="st0"/></g><g><g><path d="M-449,130c0-5.5,4.5-10,10-10s10,4.5,10,10c0,5.5-4.5,10-10,10S-449,135.5-449,130z" class="st0"/></g><circle cx="-439" cy="130" r="8" class="st2"/><polygon points="-443.2 127.2 -440.4 130 -443.2 132.8 -441.8 134.2 -439 131.4 -436.2 134.2 -434.8 132.8 -437.6 130 -434.8 127.2 -436.2 125.8 -439 128.6 -441.8 125.8" class="st0"/></g><g><g><path d="M-449,258c0-5.5,4.5-10,10-10s10,4.5,10,10c0,5.5-4.5,10-10,10S-449,263.5-449,258z" class="st0"/></g><circle cx="-439" cy="258" r="8" class="st3"/><rect width="10" height="2" x="-444" y="257" class="st0"/><rect width="2" height="10" x="-440" y="253" class="st0"/></g><g><g><path d="M-449,68c0-5.5,4.5-10,10-10s10,4.5,10,10s-4.5,10-10,10S-449,73.5-449,68z" class="st0"/></g><circle cx="-439" cy="68" r="8" class="st4"/><rect width="10" height="2" x="-444" y="67" class="st0"/><rect width="2" height="10" x="-440" y="63" class="st0"/></g><g><g><path d="M-449,328c0-5.5,4.5-10,10-10s10,4.5,10,10s-4.5,10-10,10S-449,333.5-449,328z" class="st0"/></g><circle cx="-439" cy="328" r="8" class="st5"/><path d="M-435.1,330.5c-0.2-0.2-2-1.1-2.4-1.2c0-0.1,0-0.3-0.1-0.4c-0.1,0-0.4-0.2-0.4-0.2c0,0,0-0.1,0-0.1 c0-0.1,0-0.1,0-0.1c0-0.1,0.2-0.3,0.2-0.4c0-0.2,0.1-0.5,0.1-0.5c0-0.1,0.1-0.1,0.2-0.1c0.1-0.1,0.2-0.9,0.2-0.9 c0-0.3-0.1-0.1-0.1-0.3v-0.7c0-0.9-0.7-1.4-1.6-1.4h0c-0.9,0-1.6,0.5-1.6,1.4v0.7c0,0.2-0.1,0.1-0.1,0.3c0,0,0.1,0.8,0.2,0.9 c0.1,0,0.2,0.1,0.2,0.1c0,0,0,0.4,0.1,0.5c0,0.1,0.2,0.3,0.2,0.4c0,0,0,0.1,0,0.1c0,0.1,0,0.1,0,0.1c0,0-0.3,0.1-0.4,0.2 c-0.1,0-0.1,0.3-0.1,0.4c-0.4,0.1-2.2,1-2.4,1.2c-0.1,0.2-0.1,1.1-0.1,1.1v0.1c0,0.2,0.2,0.4,0.4,0.4h7.2c0.2,0,0.4-0.2,0.4-0.4 v-0.1C-435,331.5-435,330.6-435.1,330.5z" class="st0"/></g><g><g><path d="M-449,392c0-5.5,4.5-10,10-10s10,4.5,10,10s-4.5,10-10,10S-449,397.5-449,392z" class="st0"/></g><circle cx="-439" cy="392" r="8" class="st5"/><path d="M-435.1,394.5c-0.2-0.2-2-1.1-2.4-1.2c0-0.1,0-0.3-0.1-0.4c-0.1,0-0.4-0.2-0.4-0.2c0,0,0-0.1,0-0.1 c0-0.1,0-0.1,0-0.1c0-0.1,0.2-0.3,0.2-0.4c0-0.2,0.1-0.5,0.1-0.5c0-0.1,0.1-0.1,0.2-0.1c0.1-0.1,0.2-0.9,0.2-0.9 c0-0.3-0.1-0.1-0.1-0.3v-0.7c0-0.9-0.7-1.4-1.6-1.4h0c-0.9,0-1.6,0.5-1.6,1.4v0.7c0,0.2-0.1,0.1-0.1,0.3c0,0,0.1,0.8,0.2,0.9 c0.1,0,0.2,0.1,0.2,0.1c0,0,0,0.4,0.1,0.5c0,0.1,0.2,0.3,0.2,0.4c0,0,0,0.1,0,0.1c0,0.1,0,0.1,0,0.1c0,0-0.3,0.1-0.4,0.2 c-0.1,0-0.1,0.3-0.1,0.4c-0.4,0.1-2.2,1-2.4,1.2c-0.1,0.2-0.1,1.1-0.1,1.1v0.1c0,0.2,0.2,0.4,0.4,0.4h7.2c0.2,0,0.4-0.2,0.4-0.4 v-0.1C-435,395.5-435,394.6-435.1,394.5z" class="st0"/></g><g><path d="M-449,456c0-5.5,4.5-10,10-10s10,4.5,10,10s-4.5,10-10,10S-449,461.5-449,456z" class="st0"/></g><circle cx="-439" cy="456" r="8" class="st6"/><g><g><path d="M-449,392c0-5.5,4.5-10,10-10s10,4.5,10,10s-4.5,10-10,10S-449,397.5-449,392z" class="st0"/></g><circle cx="-439" cy="392" r="8" class="st3"/><polygon points="-444 392.3 -442.1 390.5 -440.2 392.3 -435.9 388 -434 389.9 -440.2 396" class="st0"/></g><path d="M-438.5,457.5h-1.1c-0.3,0-0.5-0.2-0.5-0.5V451c0-0.3,0.2-0.5,0.5-0.5h1.1c0.3,0,0.5,0.2,0.5,0.5v6.1	C-438,457.3-438.2,457.5-438.5,457.5z" class="st0"/><path d="M-438.5,461h-1c-0.3,0-0.5-0.2-0.5-0.5v-1c0-0.3,0.2-0.5,0.5-0.5h1c0.3,0,0.5,0.2,0.5,0.5v1	C-438,460.8-438.2,461-438.5,461z" class="st0"/></svg>